<?xml version="1.0" encoding="utf-8"?>
<!-- Generator: Adobe Illustrator 24.0.2, SVG Export Plug-In . SVG Version: 6.00 Build 0)  -->
<svg version="1.1" id="Livello_1" xmlns="http://www.w3.org/2000/svg" xmlns:xlink="http://www.w3.org/1999/xlink" x="0px" y="0px"
	 viewBox="0 0 661 549.7" style="enable-background:new 0 0 661 549.7;" xml:space="preserve">
<style type="text/css">
	.st0{fill-rule:evenodd;clip-rule:evenodd;stroke:#000000;stroke-miterlimit:10;}
	.st1{fill:none;}
	.st2{fill-rule:evenodd;clip-rule:evenodd;fill:#BB060F;}
	.st3{enable-background:new    ;}
	.st4{fill:#B90E1D;}
</style>
<g>
	<g>
		<path class="st0" d="M411.1,158.5c-11,9.1-23.9,18.1-33.8,29.4c-5.4,6.2-10.8,11.2-10.1,23.5c0.4,7.9,3.1,18.7,6.9,22.5
			c6.6,6.5,16.3,6.1,27.8,6.7c30.5,1.3,59.1,0.1,85.8-3.5c12-1.6,26.5-3.1,39.6-1.1c11.9,1.8,24.3,4.8,37,5.6
			c13.9,0.9,27.9-0.6,41.7,1.3c-3.7,10.4-15,12.6-24.9,16.3c2.5,4.4,8,4.6,12.3,5.6c13.4,3.1,30.1,4.7,46.3,6.5
			c-1.5,4.9-4.9,8.9-8.6,11.8c-9,6.9-23,9-38.4,8c8.7,8.6,28.4,7.5,45.4,8c-6.8,11.9-20.8,17.1-35.7,19.3c3.5,3.3,9.7,3.7,13,6.9
			c-2.2,2.9-5.3,5.4-8.8,7.5c-9.3,5.6-24,9.8-38.7,6.1c2,4.1,6.6,4.6,10.6,6.5c1.6,0.8,5.5,2.8,5.6,4.6c0.1,1.6-2.3,4-3.7,5.4
			c-10.5,9.4-35.3,8-50.5,5.1c4.5,7.1,13.7,11.6,15.5,22.5c-11.8,4.4-25.3-0.1-36.8-2.1c2.1,7.6,7.2,13.1,9.7,21.4
			c-12.8,4.6-23.6-3.2-31-8.8c0.7,8.6,7.4,13.1,6.7,24.1c-19.2-0.6-25.9-14.1-34.7-26.2c-2.2,10.6-0.3,25.8-6.4,32.1
			c-11.3-7.9-17.9-22.5-22.2-37.3c-3.8,9.5-4.5,22.4-11.8,28.1c-8.7-6-6.5-24-12.5-32.9c-1.3,6.1-2.4,13.3-4.4,19
			c-0.7,1.9-2.8,7.3-4.4,7.8c-2.5,0.8-4.5-2.8-5.4-4.6c-3.5-6.7-4-16.2-5.6-24.3c-1.8,8.4-3.7,16.7-7.9,22.5
			c-3.4,0.3-4.6-2.9-5.6-5.1c-1.2-2.5-2-5.4-2.7-8c-3.6,13.5-4.6,29-5.6,45.7c-0.3,5.5-0.1,11.4,0.6,16.8c0.7,5.7,3.5,13.1,5.4,18.7
			c3.9,11.7,8.5,21.9,14.5,32.5c3,5.2,6.3,10.1,8.8,15.2c-1.8,1-4.3,1.5-5.9,2.7c0.6,2.9,3.5,2.9,3.4,5.9c0,2.3-4.1,5.2-6.9,6.3
			c-2.8,1.1-6.4,0.3-9.1,1.3c-1.3,0.4-3.1,2.8-4.4,3.5c-3.5,1.7-8.1,0.7-11.1,0.2c-2.3,6.8-14.5,6.2-19.7,2.7
			c-1.8,2.6-5.2,2.6-9.7,2.7c-4.4,0.1-9.3,0.9-11.1-2.5c-5.1,3.5-18.1,4.8-20.1-2.2c-6.2,1.7-12.8,0.3-15.5-3.6
			c-5.9,0.2-16.3-3.1-16.3-7.9c0-2.8,2.7-3.6,3.5-6.1c-1.4-1.8-4.6-0.7-6.2-2.4c8.7-13.5,17.7-31.2,23.6-48.2
			c2.1-5.9,4.3-12.3,5.4-18.3c0.9-5,1.2-12.6,1-18.4c-0.6-15.8-2.9-31-5.6-45c-0.6,2.8-1.6,5.2-3,8c-1,2.1-2.3,6-5.1,5.4
			c-2.4-0.6-4.2-7-5.1-10.2c-1.3-4.2-2.4-8.1-3-12.3c-2,8-2.3,17.5-6,24.7c-0.8,1.7-3,5.1-5.4,4.2c-2.2-0.7-4.6-9-5.4-11.5
			c-1.5-4.9-2.3-9.1-3-14.2c-4.1,9-3.3,23.3-10.6,28.9c-7.5-5.5-8.3-18.2-11.8-28.1c-4.9,15.1-11.1,28.9-22.2,37.3
			c-6.5-5.9-4.3-21.3-6.7-31.9c-8.6,10.7-15.2,25.9-34.7,25.7c-0.5-10.9,5.5-14.9,6.9-23.9c-7.8,5.4-18.3,13.5-31.3,8.8
			c2.5-8,7.1-13.7,9.9-21.4c-11.1,1.8-25.8,6.7-37,1.9c2.2-10.7,10.6-14.6,15.5-22.2c-15.9,2.9-40,4.4-50.7-5.4
			c-3.8-3.5-4.5-5.8,0.2-8.6c4.4-2.5,10.4-3.1,12.5-7.5c-9.3,2-19.7,1.8-27.8-1.1c-7.8-2.8-15.3-7.3-19.7-12.8
			c3.8-2.7,9.1-3.8,13-6.5c-7.6-1.7-15-3.2-21.2-6.5c-6.1-3-11.5-7.1-14.6-13.4c18.1-0.2,35.6,0.6,45.6-7.5
			c-21.7,0.7-41-3.3-47.3-20.1c15-1.8,30.7-2.9,45.8-6.5c4.7-1.1,10-1.2,12.8-5.4c-9.3-4.2-21-5.9-24.9-16.6
			c20.7-2.2,43.8,0.2,61.4-3.8c7.9-1.8,16.2-3.8,24.6-4.2c12.3-0.7,24.3,1.3,36.3,2.7c11.7,1.2,23.2,2.7,35,3.2
			c15.4,0.8,31.3,0.4,46.3-0.2c9-0.4,16.3-0.2,22.7-2.9c2.6-1.1,7.4-4,8.6-6.1c1.6-2.8,2.1-8.1,3.2-12c3.3-11.7,6.7-24,11.3-34
			c6.1-13.1,14.2-26.4,31-27.9c4.8-0.4,7.7,1.6,12.1,1.3c2.1-0.1,4.9-1.7,7.6-2.5C371.6,149.1,398.5,144.3,411.1,158.5z"/>
		<path class="st1" d="M537,98.2c-19.1-20.7-40.8-38.3-65.5-52.8c-25.4-14.7-56.6-27.9-89.8-33.7c-19.8-3.5-44.4-6-67.1-4.6
			c-18.9,1.2-38.5,4.7-54.4,8.8c-27.6,7.3-50.7,17.4-72.7,30.2c-25.2,14.8-46.8,32.9-66,53.3c-38.7,41.3-67.4,94.4-80.1,162.7
			c-3.2,0.3-6.8,0.9-10.9,1.3c-4.8,0.6-10.7,0.3-12.3,2.7c0.1,0.9-0.2,1.8,0,2.9c0.6,4.1,5.4,8.8,8.1,11.3c3.7,3.3,8.1,5,11.8,7.3
			c-0.2,1.3-0.1,3.1-0.5,4.2c-5.4,0.1-10.7,0.4-16.2,0.2c-0.4,0.7-0.9,1.2-1.4,1.6c-0.5,5,3.1,7,5.4,9.6c6,6.5,14.7,10.2,22.9,12.8
			c-3.4,0.9-6.2,3.2-5.6,6.9c8.6,9.4,20.2,15.5,36.8,16.3c-1.8,2-4.9,2.8-5.4,5.6c-0.9,4.8,5.1,9.8,7.9,11.5
			c9.4,5.9,29,5.9,41.2,4.2c-2.1,2.8-4.1,4.7-6.4,8c-1.5,2.1-4.9,7-3.9,10.9c1.2,4.7,11.9,4.2,17.8,3.8c6.5-0.4,11.9-1.6,16.7-2.5
			c-1.2,3-2.5,5.2-4.2,8.6c-1.1,2.2-4.2,6-3.2,9.6c1,3.7,9.9,3.7,14.6,3.2c5.5-0.6,9.7-3.8,13.4-4.8c-2,4.1-5,12.5-2.3,18.5
			c18.2,1.6,26.6-11.3,34.5-20.9c0.4,5.4,0.3,10.7,1.4,16.1c0.8,3.8,2.9,10.4,6.2,10.9c3.2,0.7,6.6-3.8,8.4-5.9
			c5.9-6.9,11.4-16.3,14.3-24.7c0.9,3.6,2.2,7.8,3.9,12c1.6,3.8,4.2,9.8,9.3,9.1c5.4-3.7,7.2-11.5,9.1-19c0.1,2.7,1.6,5.7,3,8.8
			c1.7,3.9,2.9,8.6,8.8,7.3c4.9-3.8,6.9-10.9,8.6-18.2c2,4.4,3.1,14.4,10.6,11.8c2.4-0.8,4.1-8.3,4.9-3.2
			c2.3,14.6,3.7,30.1,3.7,44.4c0,5.8-1.5,9.1-3,13.9c-5.5,19.1-12.8,35.6-22.2,50.6c-1.6,2.7-4.5,5.1-3.9,8.3
			c0.4,2.1,2.7,2.7,4.2,3.5c-3.8,4.9,0.2,9.8,3.5,12c3.3,2.3,8.3,2.3,12.1,2.7c2.4,2.7,5,4.2,9.1,4.6c1.7,0.1,4-0.8,5.6-0.2
			c1,0.3,2.4,2.5,3.7,3.2c5,2.9,12,1.8,17.5-0.2c4.3,3.6,16.8,2.7,21.2-0.2c4.2,1.6,11.9,3.3,17.3,0.6c1.2-0.7,2.6-3,4.2-3.5
			c3.8-1,7.2,0.4,10.1-0.8c1.5-0.7,2.9-2.9,4.4-3.5c2.1-0.8,4.3-0.4,6.2-0.8c4.2-0.9,9.7-3.7,10.6-7.8c0.6-2.5-0.5-5-1.2-6.5
			c2-0.7,3.5-1.1,3.9-2.9c0.7-3.1-2.2-5.9-3.7-8.3c-8.4-13.4-13.7-25.7-19.2-41.5c-2.2-6.1-4.8-13.2-5.6-19c-0.5-3.6-0.1-7,0-10.5
			c0.5-13.7,1.2-27.4,3.9-40.4c2.1,2.8,3.3,6.5,8.8,5.4c3.2-2.6,4-7.6,6.4-10.9c0.6,2.3,0.9,5.6,2,8.3c1.2,3.3,3.8,8.4,6.4,9.1
			c1.3,0.4,2.7-0.3,4.2,0c4.8-4.4,6.4-12.2,8.6-19.3c1.5,6.6,2.4,14.9,5.4,20.1c1,1.7,3.5,5,5.1,5.4c4.1,0.9,7.4-5.5,8.8-8.8
			c1.8-4.2,2.6-9.1,4.2-12.3c3.1,8.9,8.1,17.6,14.1,24.3c2.1,2.3,5.3,6.4,8.6,5.9c6.2-4,7-16.2,7.4-27.3c5.9,8,14,18.6,26.1,20.9
			c2.4,0.4,7,1.5,8.6,0c1.1-1.1,1-5.7,0.7-8.3c-0.4-4-2.5-7.5-3.5-10.5c5,3.6,12.9,6.1,21.5,5.4c2.7-0.2,6.2-1.2,6.7-3.5
			c0.8-3.5-2-7.3-3.2-9.6c-1.5-3.1-3.5-5.6-3.9-8.3c6.2,1.2,16.3,3.2,24.4,2.7c2.7-0.2,6.9-0.7,8.6-2.1c2.8-2.3,0.1-8.6-1.2-10.9
			c-2.2-3.8-6.3-7-7.9-9.9c12.8,2,31.8,1.2,41.2-4.6c3-1.9,7.4-5.5,7.9-8.8c0.8-5.1-3.7-5.8-5.1-8c11.5-0.2,22.6-4.6,30.3-10.5
			c2.4-1.8,6.7-4.6,6.2-8c-0.4-2.8-3.5-3.6-5.6-5.1c8.6-2.2,17.4-6.4,23.2-12.6c2.4-2.5,5.9-5.4,5.1-9.6c-0.6-0.4-1.1-1-1.4-1.6
			c-5.8-0.1-12.1,0.3-17.5-0.2c-0.2-1.3-0.3-2.7-0.2-4.2c4.2-1.6,8.8-3.7,12.5-6.9c3.4-3,8.6-8.3,8.4-14.5c-0.6-0.4-1.1-1-1.4-1.6
			c-7.7-0.8-15.5-1.5-22.7-2.7C606.6,194.6,577.7,142.4,537,98.2z"/>
		<path class="st2" d="M618.7,264.7c7.2,1.2,15,1.9,22.7,2.7c0.4,0.7,0.9,1.2,1.4,1.6c0.2,6.2-5,11.5-8.4,14.5
			c-3.8,3.3-8.4,5.4-12.5,6.9c-0.1,1.6,0.1,3,0.2,4.2c5.3,0.6,11.7,0.1,17.5,0.2c0.4,0.7,0.9,1.2,1.4,1.6c0.6,4.2-2.9,7.1-5.1,9.6
			c-5.8,6.1-14.5,10.4-23.2,12.6c2.2,1.5,5.2,2.2,5.6,5.1c0.5,3.3-3.8,6.2-6.2,8c-7.8,5.9-18.8,10.3-30.3,10.5c1.4,2.2,6,2.9,5.1,8
			c-0.5,3.3-4.9,6.9-7.9,8.8c-9.3,5.8-28.3,6.5-41.2,4.6c1.6,2.9,5.8,6.1,7.9,9.9c1.3,2.5,4,8.6,1.2,10.9c-1.7,1.5-6,1.9-8.6,2.1
			c-8.1,0.6-18.2-1.5-24.4-2.7c0.5,2.8,2.4,5.2,3.9,8.3c1.2,2.3,4,6.1,3.2,9.6c-0.5,2.2-4,3.2-6.7,3.5c-8.5,0.8-16.4-1.8-21.5-5.4
			c1,2.9,3.1,6.5,3.5,10.5c0.3,2.6,0.4,7.3-0.7,8.3c-1.6,1.5-6.3,0.4-8.6,0c-12.1-2.2-20.2-12.9-26.1-20.9
			c-0.4,11.2-1.2,23.3-7.4,27.3c-3.3,0.4-6.6-3.5-8.6-5.9c-5.9-6.8-11-15.4-14.1-24.3c-1.6,3.2-2.3,8-4.2,12.3
			c-1.4,3.3-4.8,9.7-8.8,8.8c-1.7-0.3-4.2-3.7-5.1-5.4c-3-5.1-3.9-13.5-5.4-20.1c-2.3,7.1-3.8,14.9-8.6,19.3c-1.5-0.3-2.9,0.4-4.2,0
			c-2.6-0.8-5.1-5.8-6.4-9.1c-1-2.8-1.3-5.9-2-8.3c-2.4,3.3-3.3,8.4-6.4,10.9c-5.6,1.1-6.8-2.6-8.8-5.4c-2.8,13.1-3.4,26.8-3.9,40.4
			c-0.1,3.5-0.5,6.9,0,10.5c0.8,5.8,3.5,12.8,5.6,19c5.5,15.8,10.8,28.1,19.2,41.5c1.5,2.5,4.4,5.1,3.7,8.3c-0.4,1.8-2,2.3-3.9,2.9
			c0.7,1.3,1.8,3.9,1.2,6.5c-0.9,4-6.5,6.9-10.6,7.8c-1.8,0.3-4.1,0.1-6.2,0.8c-1.6,0.6-2.9,2.8-4.4,3.5c-2.9,1.3-6.3-0.2-10.1,0.8
			c-1.6,0.4-3,2.8-4.2,3.5c-5.3,2.8-13,1-17.3-0.6c-4.3,3-16.8,3.8-21.2,0.2c-5.4,2.1-12.4,3.1-17.5,0.2c-1.3-0.8-2.7-2.9-3.7-3.2
			c-1.7-0.4-3.9,0.4-5.6,0.2c-4.1-0.3-6.8-1.8-9.1-4.6c-3.8-0.3-8.7-0.3-12.1-2.7c-3.3-2.2-7.3-7.1-3.5-12c-1.5-0.8-3.8-1.5-4.2-3.5
			c-0.5-3.1,2.3-5.7,3.9-8.3c9.3-15.1,16.6-31.6,22.2-50.6c1.4-4.8,3-8.1,3-13.9c0-14.3-1.4-29.9-3.7-44.4c-0.8-5-2.6,2.3-4.9,3.2
			c-7.5,2.6-8.7-7.5-10.6-11.8c-1.7,7.3-3.7,14.4-8.6,18.2c-6.1,1.5-7.2-3.3-8.8-7.3c-1.3-3.1-2.9-6.1-3-8.8c-2,7.5-3.7,15.3-9.1,19
			c-5.1,0.8-7.7-5.2-9.3-9.1c-1.8-4.2-3-8.5-3.9-12c-2.9,8.4-8.4,17.6-14.3,24.7c-1.8,2.1-5.2,6.5-8.4,5.9
			c-3.3-0.7-5.3-7.1-6.2-10.9c-1.1-5.4-1-10.7-1.4-16.1c-7.9,9.7-16.3,22.4-34.5,20.9c-2.8-6,0.3-14.4,2.3-18.5
			c-3.7,1.1-7.7,4.2-13.4,4.8c-4.7,0.4-13.5,0.4-14.6-3.2c-1-3.6,2.1-7.5,3.2-9.6c1.6-3.3,2.9-5.6,4.2-8.6
			c-4.8,0.9-10.3,1.9-16.7,2.5c-5.9,0.4-16.5,0.9-17.8-3.8c-1-4,2.5-8.8,3.9-10.9c2.3-3.3,4.4-5.2,6.4-8
			c-12.1,1.6-31.7,1.6-41.2-4.2c-2.8-1.8-8.8-6.7-7.9-11.5c0.5-2.9,3.5-3.7,5.4-5.6c-16.5-0.8-28.1-6.9-36.8-16.3
			c-0.5-3.7,2.3-6,5.6-6.9c-8.2-2.7-16.9-6.4-22.9-12.8c-2.4-2.6-6-4.7-5.4-9.6c0.6-0.4,1.1-1,1.4-1.6c5.6,0.1,10.9-0.1,16.2-0.2
			c0.4-1.1,0.2-2.9,0.5-4.2c-3.7-2.2-8.1-3.9-11.8-7.3c-2.7-2.3-7.5-7-8.1-11.3c-0.2-1.1,0.1-2,0-2.9c1.6-2.3,7.5-2.1,12.3-2.7
			c4-0.4,7.7-1,10.9-1.3C54,193.7,82.7,140.5,121.4,99.3c19.2-20.5,40.9-38.5,66-53.3c22-12.9,45.1-23.1,72.7-30.2
			c15.9-4.1,35.5-7.6,54.4-8.8c22.7-1.6,47.2,1,67.1,4.6c33.2,5.8,64.4,19,89.8,33.7c24.8,14.5,46.5,32,65.5,52.8
			C577.7,142.4,606.6,194.6,618.7,264.7z M354.9,152.8c-2.8,0.8-5.5,2.3-7.6,2.5c-4.4,0.2-7.2-1.8-12.1-1.3
			c-16.9,1.5-25,14.7-31,27.9c-4.6,9.9-8,22.3-11.3,34c-1.1,3.9-1.5,9.3-3.2,12c-1.2,2.1-6.1,5.1-8.6,6.1
			c-6.4,2.7-13.7,2.6-22.7,2.9c-15,0.7-30.9,1-46.3,0.2c-11.8-0.6-23.3-1.9-35-3.2c-11.9-1.3-23.9-3.3-36.3-2.7
			c-8.4,0.4-16.7,2.5-24.6,4.2c-17.7,4-40.7,1.6-61.4,3.8c3.9,10.7,15.5,12.3,24.9,16.6c-2.9,4.1-8.1,4.2-12.8,5.4
			c-15.1,3.6-30.8,4.6-45.8,6.5c6.4,16.7,25.7,20.7,47.3,20.1c-10,8-27.5,7.3-45.6,7.5c3,6.2,8.5,10.4,14.6,13.4
			c6.3,3.1,13.6,4.8,21.2,6.5c-3.9,2.6-9.2,3.7-13,6.5c4.4,5.6,11.9,10.2,19.7,12.8c8.1,2.9,18.5,3,27.8,1.1
			c-2.3,4.5-8.2,5-12.5,7.5c-4.8,2.7-4,5.1-0.2,8.6c10.8,9.7,34.8,8.3,50.7,5.4c-5,7.6-13.4,11.5-15.5,22.2
			c11.2,4.8,25.9-0.1,37-1.9c-2.8,7.7-7.4,13.4-9.9,21.4c13,4.6,23.4-3.6,31.3-8.8c-1.4,8.9-7.4,12.8-6.9,23.9
			c19.5,0.2,26.2-14.9,34.7-25.7c2.3,10.5,0.1,25.9,6.7,31.9c11.1-8.4,17.3-22.1,22.2-37.3c3.5,9.9,4.3,22.6,11.8,28.1
			c7.3-5.6,6.5-19.9,10.6-28.9c0.7,5,1.4,9.3,3,14.2c0.8,2.5,3.3,10.8,5.4,11.5c2.5,0.8,4.5-2.6,5.4-4.2c3.6-7.1,4-16.6,6-24.7
			c0.6,4.1,1.5,8,3,12.3c1,3.1,2.9,9.6,5.1,10.2c2.9,0.7,4.2-3.2,5.1-5.4c1.2-2.8,2.3-5.2,3-8c2.9,13.9,5,29.1,5.6,45
			c0.2,5.8,0.9,13.7,0,18.7c-1.1,6-3.4,12.6-5.4,18.5c-6,17-14.5,33.9-23.2,47.4c1.5,1.7,5.2,0.9,6.7,2.7c-0.8,2.6-4.2,3.1-4.2,5.9
			c0,4.8,9.7,7.7,15.5,7.5c2.7,3.8,9.3,5.4,15.5,3.8c2.1,7,14.6,6.1,19.7,2.7c1.7,3.3,6.7,2.6,11.1,2.5c4.3-0.1,7.8-0.1,9.7-2.7
			c5.2,3.6,17.5,4.1,19.7-2.7c3,0.4,7.6,1.3,11.1-0.2c1.3-0.7,3.1-3,4.4-3.5c2.7-1,6.4-0.2,9.1-1.3c2.8-1.1,6.2-3.8,6.2-6.1
			c0.1-3-3.4-3.2-3.9-6.1c1.6-1.2,4.6-1.1,6.4-2.1c-2.5-5.1-5.6-9.9-8.6-15.3c-5.9-10.5-10.6-21-14.6-32.7c-1.8-5.7-4.7-13.3-5.4-19
			c-0.6-5.4-0.1-11.4,0.2-16.8c1-16.7,2.1-32.2,5.6-45.7c0.7,2.7,1.5,5.6,2.7,8c1.1,2.2,2.4,5.5,5.6,5.1c4.2-5.8,6.1-14.2,7.9-22.5
			c1.7,8.1,2.2,17.6,5.6,24.3c0.9,1.8,2.9,5.2,5.4,4.6c1.6-0.4,3.7-5.9,4.4-7.8c2.1-5.7,3.1-12.8,4.4-19c6.1,8.9,3.9,26.9,12.5,32.9
			c7.3-5.7,8-18.6,11.8-28.1c4.3,14.7,10.9,29.2,22.2,37.3c6.2-6.4,4.2-21.5,6.4-32.1c8.9,12.2,15.6,25.7,34.7,26.2
			c0.7-11-6-15.5-6.7-24.1c7.5,5.7,18.2,13.4,31,8.8c-2.5-8.4-7.6-13.8-9.7-21.4c11.4,2,24.9,6.6,36.8,2.1
			c-1.8-10.9-11.1-15.3-15.5-22.5c15.2,3,40.1,4.2,50.5-5.1c1.4-1.3,3.8-3.8,3.7-5.4c-0.2-1.8-4-3.8-5.6-4.6
			c-4-1.9-8.7-2.3-10.6-6.5c14.6,3.6,29.4-0.6,38.7-6.1c3.5-2.1,6.7-4.6,8.8-7.5c-3.4-3.3-9.7-3.7-13-6.9c14.9-2.2,29-7.4,35.7-19.3
			c-16.9-0.6-36.7,0.6-45.4-8c15.4,1,29.5-1.1,38.4-8c3.7-2.9,7.1-6.8,8.6-11.8c-16.2-1.8-33-3.2-46.3-6.5c-4.3-1-9.9-1.2-12.3-5.6
			c9.9-3.7,21.2-5.9,24.9-16.3c-13.8-1.9-27.8-0.4-41.7-1.3c-12.6-0.8-25.1-3.8-37-5.6c-13.2-2-27.6-0.6-39.6,1.1
			c-26.8,3.6-55.4,4.9-85.8,3.5c-11.6-0.6-21.4-0.2-27.8-6.7c-3.8-3.8-6.5-14.5-6.9-22.5c-0.6-12.4,4.7-17.3,10.1-23.5
			c9.9-11.4,22.8-20.3,33.8-29.4C398.8,143.3,371.9,148.1,354.9,152.8z"/>
	</g>
</g>
<g class="st3">
	<path class="st4" d="M83.8,323l2.2-54.5l-5.7,0.1l0.2-3.7l19.1-0.7l-0.2,4l-6.9,0.2l-1.2,54.1L83.8,323z"/>
	<path class="st4" d="M102.2,323l1.5-58.8l6.2,1l-0.8,34.8l6.5,0.1l1.1-35l6.2-1.1l-0.5,57.9l-7,1.2l0.2-18.4l-6.4-0.5l-0.4,18.6
		L102.2,323z"/>
	<path class="st4" d="M127,322.6l2.2-58.4l17.1,0.3l0.1,3.7h-11l-0.4,30h6l0.1,4.5h-6.2l-0.2,15.6l9.6,0.1l-0.1,4.3L127,322.6z"/>
	<path class="st4" d="M168.3,322.5l1.1-58l6.5,0.1l-1.1,54.2H185v4.2L168.3,322.5z"/>
	<path class="st4" d="M206.9,264.5l8.8,57.4l-5.9,0.8l-2.9-18.3l-9.8,0.1l-2.5,17.4l-6.2,0.4l9.2-58L206.9,264.5z M198.2,300.2
		l7.9-0.1l-4.5-30L198.2,300.2z"/>
	<path class="st4" d="M219.5,312.4l5.1-0.8c0.1,0.4,0.2,0.9,0.4,1.4c0.1,0.4,0.2,0.9,0.4,1.4c0.2,0.5,0.4,0.9,0.6,1.3
		c0.8,1.5,1.7,2,2.5,1.8c0.7-0.3,1.1-1,1-2.1c0-1.1-0.2-2.4-0.5-3.8c-0.1-0.4-0.3-1.3-0.5-2.7c-0.3-1.3-0.6-2.9-1-4.8
		c-0.4-1.8-0.8-3.8-1.2-5.9c-0.4-2.1-0.9-4.1-1.3-6.1c-0.4-2-0.8-3.9-1.2-5.6c-0.4-1.7-0.6-3.1-0.8-4.1c-0.3-1.5-0.5-3-0.7-4.4
		c-0.1-1.5-0.1-2.8,0-4.2c0.2-1.3,0.5-2.6,1-3.8c0.5-1.2,1.3-2.3,2.4-3.3c1-0.9,2.1-1.6,3.4-2c1.2-0.4,2.4-0.5,3.5-0.4
		c1.2,0.1,2.2,0.4,3.2,1c1,0.5,1.7,1.2,2.3,1.9c0.6,0.8,1,1.6,1.4,2.6c0.4,0.9,0.7,1.9,1,2.8c0.3,1,0.6,2,0.8,3.1l-4.6,0.8
		c-0.1-0.3-0.2-0.7-0.3-1.2c-0.1-0.4-0.2-0.9-0.3-1.4c-0.1-0.6-0.3-1.2-0.6-1.8c-0.3-1.1-0.9-1.8-1.7-2.2c-0.8-0.4-1.7-0.5-2.5-0.3
		c-0.8,0.2-1.6,0.6-2.2,1.4s-0.9,1.7-0.8,3c0.1,2.3,0.4,4.9,1,7.5c0.6,2.7,1.3,5.7,2.2,9.1c0.5,1.9,1,4,1.6,6.4
		c0.6,2.4,1.1,4.8,1.6,7.1c0.5,2.3,0.9,4.5,1.2,6.5s0.4,3.6,0.2,4.8c-0.3,2.1-0.8,3.8-1.6,5.2c-0.8,1.3-2.2,2.1-4.3,2.3
		c-1.3,0.1-2.5,0-3.5-0.3s-1.9-0.9-2.7-1.7c-0.8-0.8-1.6-1.9-2.3-3.3C221,316.1,220.3,314.4,219.5,312.4z"/>
	<path class="st4" d="M246.2,323l2.2-54.5l-5.7,0.1l0.2-3.7l19.1-0.7l-0.2,4l-6.9,0.2l-1.2,54.1L246.2,323z"/>
	<path class="st4" d="M304.6,280.3c0.1,1.5,0.1,3.5,0.1,6c0,2.5,0,5.1,0,7.7c0,2.6-0.1,5.1-0.2,7.4c-0.1,2.3-0.2,4-0.4,5.1
		c-0.2,1.6-0.3,3-0.6,4.4c-0.2,1.4-0.6,2.8-1,4.1c-0.3,0.9-0.8,1.7-1.3,2.5c-0.6,0.8-1.3,1.5-2.1,2.1c-0.8,0.6-1.7,1.1-2.6,1.6
		s-1.8,0.8-2.8,0.9c-1,0.2-2.1,0.4-3.2,0.5c-1.1,0.1-2.1,0.2-3,0.2c-1.1,0.1-2.1,0.1-3.2,0.1c-0.1-1.7-0.1-3.3-0.1-4.9
		c0-1.4,0-2.9,0-4.4c0-1.5,0-2.9,0.1-4.1c0-0.9,0-2.2,0.1-4c0.1-1.8,0.1-3.8,0.2-6.1c0.1-2.3,0.1-4.8,0.2-7.4
		c0.1-2.6,0.1-5.3,0.2-7.9c0.2-6.1,0.3-12.9,0.4-20.2c0.8-0.1,1.6-0.1,2.5-0.1h4.9c1.9,0.1,3.5,0.6,4.9,1.5c1.4,0.9,2.6,2.1,3.7,3.6
		c1.2,1.6,2,3.3,2.4,5.2C304.2,276.2,304.5,278.2,304.6,280.3z M300,294.8c0.1-1.2,0.1-2.6,0.1-4.2c0-1.6,0-3.2,0-4.7
		c0-1.5-0.1-2.9-0.1-4.2c-0.1-1.3-0.1-2.2-0.2-2.8c-0.3-1.6-0.6-3.2-1.1-4.6c-0.5-1.4-0.9-2.6-1.3-3.3c-0.3-0.6-0.6-1-1-1.3
		c-0.4-0.3-0.8-0.5-1.3-0.6c-0.4-0.1-1-0.2-1.8-0.2h-1.2l-1.4,47.7h1.3c0.4,0,0.7,0,1.1,0c0.4,0,0.7-0.1,1-0.1
		c0.6-0.1,1.2-0.3,1.6-0.7c0.5-0.4,0.9-0.8,1.3-1.2c0.4-0.5,0.7-1.1,0.9-1.9c0.3-0.8,0.5-1.5,0.6-2.2c0.1-0.5,0.2-1.4,0.4-2.6
		c0.2-1.2,0.3-2.5,0.5-4c0.2-1.5,0.3-3,0.4-4.6C299.8,297.6,299.9,296.1,300,294.8z"/>
	<path class="st4" d="M326,298.8c-0.6,0.7-1.4,1.5-2.5,2.3c-1,0.8-2.2,1.5-3.5,1.9c0.4,0.6,0.9,1.5,1.6,2.8c0.7,1.2,1.4,2.5,2.2,3.8
		c0.5,0.8,1,1.8,1.7,3c0.7,1.2,1.3,2.4,2,3.6c0.7,1.4,1.5,2.8,2.3,4.3l-5,0.1l-8-16.9h-0.6c-0.1,0-0.2,0-0.2-0.1l-0.2,19.2l-6.7-1
		l1.7-57.3c2.2-0.1,4.3-0.1,6.3-0.1c1.6,0,3.3,0,5,0c1.7,0,2.9,0.1,3.7,0.2c1.6,0.3,2.7,0.8,3.4,1.6c0.7,0.8,1.2,2,1.4,3.5
		c0.3,1.5,0.4,3.7,0.6,6.5c0.1,2.8,0.1,5.8-0.2,9.1c-0.2,1.6-0.4,3.2-0.8,4.6c-0.4,1.5-0.9,2.8-1.3,3.9c-0.5,1.2-1,2.2-1.5,3.1
		C326.8,297.7,326.3,298.3,326,298.8z M324.3,291.6c0.1-0.4,0.1-1.2,0.1-2.3c0-1.2,0.1-2.5,0.1-4c0.1-1.5,0.1-3.1,0.1-4.8
		c0-1.7,0.1-3.2,0.1-4.6c0-1.4,0-2.6,0-3.6c0-1,0-1.5,0-1.7c0-0.6-0.2-1.1-0.5-1.6c-0.3-0.4-0.8-0.7-1.6-0.8c-0.3,0-0.7,0-1.3,0
		c-0.6,0-1.3,0-2,0c-0.8,0-1.7,0-2.6-0.1l-0.9,32.9c0.5,0.1,1,0,1.5-0.2c0.5-0.1,1-0.3,1.6-0.7c0.6-0.3,1.3-0.8,1.9-1.4
		c1.3-1.3,2.1-2.5,2.6-3.7C323.9,293.6,324.2,292.5,324.3,291.6z"/>
	<path class="st4" d="M355.3,272.3c0,0.3,0,1.3,0,2.8c0,1.6,0,3.4,0,5.6c0,2.2-0.1,4.5-0.1,7c-0.1,2.5-0.1,4.8-0.2,7
		c-0.1,2.2-0.1,4.1-0.1,5.8c0,1.6,0,2.7,0,3.2c0,0.6,0,1.4,0,2.3c0,0.9-0.1,1.8-0.1,2.8c-0.1,1-0.1,2-0.2,2.9
		c-0.1,1-0.2,1.9-0.4,2.6c-0.4,1.9-0.9,3.5-1.7,4.7c-0.8,1.2-1.5,2.1-2,2.5c-0.5,0.4-1.1,0.8-1.8,1.1c-0.8,0.3-1.8,0.4-3.2,0.3
		c-0.7,0-1.3,0-1.7,0c-0.4,0-0.8,0-1,0s-0.5,0-0.8,0c-0.2,0-0.5,0-0.8-0.1c-1.3-0.1-2.3-0.4-2.9-1c-0.7-0.6-1.2-1.3-1.6-2.3
		c-0.4-0.9-0.7-2-1-3.4c-0.3-1.4-0.4-3-0.5-4.8c0-0.6,0-1.9,0-3.8c0-2,0-4,0.1-6.2c0-2.2,0.1-4.3,0.1-6.1c0.1-1.9,0.1-3.2,0.2-3.8
		c0.1-1.7,0.2-3.5,0.4-5.4c0.2-2,0.3-3.8,0.5-5.7s0.3-3.5,0.5-5c0.2-1.5,0.3-2.5,0.4-3.1c0.2-1.3,0.4-2.3,0.7-3
		c0.3-0.7,0.6-1.3,0.8-1.8c0.5-0.7,1.2-1.4,2.3-2c1.1-0.7,2.4-1.1,3.8-1.1c1.7-0.1,3.2,0,4.5,0.3c1.3,0.2,2.3,0.7,3.3,1.5
		c1,0.8,1.7,1.8,2.1,2.8C355,269.9,355.3,271.1,355.3,272.3z M349.5,314.1c0-0.2,0-1.4,0-3.6c0-2.1,0-4.8,0-7.9c0-3.1,0-6.4,0-10
		c0-3.6,0-7,0-10.1c0-3.1,0-5.8,0-7.9s0-3.4,0-3.8c-0.1-0.8-0.3-1.3-0.6-1.5c-0.4-0.2-0.9-0.4-1.6-0.4c-0.2,0-0.5,0-1.1,0
		c-0.6,0-1.2,0-1.7,0c-0.6,0-0.9,0.1-1.1,0.4c-0.2,0.3-0.3,0.7-0.3,1.3c0,0.1-0.1,1.1-0.2,3.3c-0.1,2.1-0.2,4.7-0.4,7.9
		c-0.2,3.1-0.4,6.5-0.5,10.2c-0.2,3.7-0.4,7.1-0.5,10.2c-0.2,3.2-0.3,5.8-0.4,7.9c-0.1,2.1-0.2,3.3-0.2,3.4
		c-0.1,0.6-0.1,1.4-0.2,2.4c-0.1,1,0,1.8,0.2,2.4c0.4,1.1,1,1.6,2,1.8h2.8c0.8-0.1,1.3-0.3,1.7-0.6c0.4-0.3,0.7-0.7,1-1.2
		c0.4-0.6,0.7-1.1,0.8-1.7C349.4,315.9,349.4,315.1,349.5,314.1z"/>
	<path class="st4" d="M360.7,264.5c2-0.1,3.8-0.1,5.5-0.2c1.5-0.1,3-0.1,4.4,0c1.5,0,2.6,0.1,3.4,0.1c0.8,0.1,1.5,0.2,1.9,0.5
		c0.5,0.3,0.8,0.7,1.1,1.1c0.3,0.4,0.4,0.9,0.5,1.3l0.2,1c0,0.2,0,0.7,0,1.5c0,0.8,0,1.8,0,3v7.8c0,1.3,0,2.4,0,3.4c0,1,0,1.7,0,2
		c-0.1,1.2-0.2,2.8-0.3,4.9s-0.5,3.8-1,5.5c-1,3.3-2.8,5.3-5.3,5.9l-2.2,0.6c-0.8,0.2-1.6,0.4-2.4,0.6l-1.5,0.3l-0.4,19.2L359,323
		L360.7,264.5z M366.6,300.5c0.7-0.1,1.4-0.2,2.1-0.3c0.7-0.1,1.2-0.2,1.6-0.3c0.5-0.2,0.9-0.6,1.2-1.4s0.5-2,0.7-3.6
		c0.1-1.1,0.2-2.1,0.3-3.1c0.1-1,0.1-2.1,0.2-3.3v-5.5c0-1.3,0-2.6,0-4.1c0-1.4-0.1-2.8-0.1-4c0-1.3,0-2.4,0-3.3v-1.8
		c0-0.4-0.1-0.7-0.3-1c-0.2-0.3-0.4-0.5-0.7-0.7s-0.5-0.3-0.8-0.4c-0.3-0.1-0.4-0.1-0.5-0.1h-0.8c-0.5,0-1,0-1.5-0.1
		c-0.6,0-1.2,0-2-0.1l-0.7,33.5C365.6,300.6,366.1,300.5,366.6,300.5z"/>
	<path class="st4" d="M421.2,272.3c0,0.3,0,1.3,0,2.8c0,1.6,0,3.4,0,5.6c0,2.2-0.1,4.5-0.1,7c-0.1,2.5-0.1,4.8-0.2,7
		c-0.1,2.2-0.1,4.1-0.1,5.8c0,1.6,0,2.7,0,3.2c0,0.6,0,1.4,0,2.3c0,0.9-0.1,1.8-0.1,2.8c-0.1,1-0.1,2-0.2,2.9
		c-0.1,1-0.2,1.9-0.4,2.6c-0.4,1.9-0.9,3.5-1.7,4.7c-0.8,1.2-1.5,2.1-2,2.5c-0.5,0.4-1.1,0.8-1.8,1.1c-0.8,0.3-1.8,0.4-3.2,0.3
		c-0.7,0-1.3,0-1.7,0c-0.4,0-0.8,0-1,0s-0.5,0-0.8,0c-0.2,0-0.5,0-0.8-0.1c-1.3-0.1-2.3-0.4-2.9-1c-0.7-0.6-1.2-1.3-1.6-2.3
		c-0.4-0.9-0.7-2-1-3.4c-0.3-1.4-0.4-3-0.5-4.8c0-0.6,0-1.9,0-3.8c0-2,0-4,0.1-6.2c0-2.2,0.1-4.3,0.1-6.1c0.1-1.9,0.1-3.2,0.2-3.8
		c0.1-1.7,0.2-3.5,0.4-5.4c0.2-2,0.3-3.8,0.5-5.7s0.3-3.5,0.5-5c0.2-1.5,0.3-2.5,0.4-3.1c0.2-1.3,0.4-2.3,0.7-3
		c0.3-0.7,0.6-1.3,0.8-1.8c0.5-0.7,1.2-1.4,2.3-2c1.1-0.7,2.4-1.1,3.8-1.1c1.7-0.1,3.2,0,4.5,0.3c1.3,0.2,2.3,0.7,3.3,1.5
		c1,0.8,1.7,1.8,2.1,2.8C420.9,269.9,421.1,271.1,421.2,272.3z M415.3,314.1c0-0.2,0-1.4,0-3.6c0-2.1,0-4.8,0-7.9c0-3.1,0-6.4,0-10
		c0-3.6,0-7,0-10.1c0-3.1,0-5.8,0-7.9s0-3.4,0-3.8c-0.1-0.8-0.3-1.3-0.6-1.5c-0.4-0.2-0.9-0.4-1.6-0.4c-0.2,0-0.5,0-1.1,0
		c-0.6,0-1.2,0-1.7,0c-0.6,0-0.9,0.1-1.1,0.4c-0.2,0.3-0.3,0.7-0.3,1.3c0,0.1-0.1,1.1-0.2,3.3c-0.1,2.1-0.2,4.7-0.4,7.9
		c-0.2,3.1-0.4,6.5-0.5,10.2c-0.2,3.7-0.4,7.1-0.5,10.2c-0.2,3.2-0.3,5.8-0.4,7.9c-0.1,2.1-0.2,3.3-0.2,3.4
		c-0.1,0.6-0.1,1.4-0.2,2.4c-0.1,1,0,1.8,0.2,2.4c0.4,1.1,1,1.6,2,1.8h2.8c0.8-0.1,1.3-0.3,1.7-0.6c0.4-0.3,0.7-0.7,1-1.2
		c0.4-0.6,0.7-1.1,0.8-1.7C415.2,315.9,415.3,315.1,415.3,314.1z"/>
	<path class="st4" d="M425.4,322.8l2.2-57.7l19.6-0.8v4.4l-13,1.2l-1,29.8l6.8-0.1l0.4,4l-7.2,0.2l-1.4,19H425.4z"/>
	<path class="st4" d="M488.4,302.6c0.1,0.5,0.1,1.3,0.1,2.4s0,2.2,0,3.4c0,1.2,0,2.3,0,3.3c0,1.1-0.1,1.8-0.1,2.2
		c-0.1,0.4-0.1,1-0.2,1.5c-0.1,0.6-0.1,1.2-0.3,1.8c-0.1,0.6-0.3,1.2-0.6,1.8c-0.3,0.6-0.6,1-1,1.4c-0.5,0.4-1,0.7-1.7,1
		c-0.6,0.3-1.3,0.5-2,0.6c-0.7,0.2-1.4,0.3-2.1,0.4c-0.7,0.1-1.3,0.2-1.8,0.2c-0.5,0.1-1.3,0.1-2.5,0.1s-2.3,0-3.5,0h-4.5l1.6-58.1
		c1.4-0.1,2.8-0.1,4.1-0.1h5.6c0.6,0,1.2,0.1,1.9,0.2c0.7,0.1,1.4,0.3,2.1,0.5c0.7,0.2,1.3,0.5,1.9,0.9c0.6,0.4,1,0.8,1.2,1.3
		c0.3,0.7,0.5,1.4,0.7,2.1c0.2,0.7,0.3,1.4,0.3,2.1c0.1,0.7,0.1,1.4,0.1,2c0,0.6,0,1.1,0,1.5c0,0.4,0,1.3,0,2.6c0,1.3,0,2.8-0.1,4.3
		c-0.1,1.5-0.1,3-0.2,4.4c-0.1,1.4-0.1,2.4-0.2,2.9c-0.2,1.2-0.4,2-0.6,2.6c-0.3,0.6-0.6,1.2-1.1,1.8c-0.3,0.3-0.6,0.6-1.1,1
		c-0.5,0.4-1,0.7-1.6,1c-0.6,0.3-1.2,0.6-1.7,0.8s-1,0.4-1.3,0.5c0.3,0.1,0.6,0.1,0.9,0.1c0.3,0,0.5,0,0.8,0c0.3,0,0.6,0,1,0
		c1.6,0.2,3,0.7,4,1.7C487.8,299.9,488.3,301.1,488.4,302.6z M482.7,315.3c0.2-0.5,0.3-1.4,0.3-2.6c0.1-1.2,0.1-2.5,0.2-3.8
		c0-1.3,0-2.6,0-3.8c0-1.2-0.1-2-0.1-2.6c-0.2-0.9-0.6-1.8-1.3-2.4c-0.7-0.7-1.5-1-2.5-1.1c-0.3,0-0.6,0-1,0c-0.4,0-0.9,0-1.3,0
		c-0.5,0-1.1,0-1.6-0.1l-0.6,20.2h1.5c0.5,0,1,0,1.5,0c0.5,0,1.1,0,1.6-0.1c0.9-0.1,1.6-0.4,2.2-1.2
		C482,317.1,482.4,316.3,482.7,315.3z M475.7,267.1l0.1,28.3c0.3,0,0.7-0.1,1.1-0.3c0.3-0.1,0.7-0.3,1.1-0.5
		c0.4-0.2,0.9-0.5,1.3-0.9c0.9-0.8,1.5-1.6,1.8-2.4c0.4-0.8,0.6-1.8,0.7-2.8c0.1-0.3,0.1-1.3,0.1-2.8s0-3.2,0-4.9c0-1.8,0-3.5,0-5.2
		c0-1.7,0-2.9,0-3.6c-0.1-1.4-0.5-2.6-1.3-3.5c-0.8-0.9-1.7-1.3-2.4-1.3H475.7z"/>
	<path class="st4" d="M492.8,322.5l1.1-58l6.5,0.1l-1.1,54.2h10.2v4.2L492.8,322.5z"/>
	<path class="st4" d="M533.3,272.3c0,0.3,0,1.3,0,2.8c0,1.6,0,3.4,0,5.6c0,2.2-0.1,4.5-0.1,7c-0.1,2.5-0.1,4.8-0.2,7
		c-0.1,2.2-0.1,4.1-0.1,5.8c0,1.6,0,2.7,0,3.2c0,0.6,0,1.4,0,2.3c0,0.9-0.1,1.8-0.1,2.8c-0.1,1-0.1,2-0.2,2.9
		c-0.1,1-0.2,1.9-0.4,2.6c-0.4,1.9-0.9,3.5-1.7,4.7c-0.8,1.2-1.5,2.1-2,2.5c-0.5,0.4-1.1,0.8-1.8,1.1c-0.8,0.3-1.8,0.4-3.2,0.3
		c-0.7,0-1.3,0-1.7,0c-0.4,0-0.8,0-1,0s-0.5,0-0.8,0c-0.2,0-0.5,0-0.8-0.1c-1.3-0.1-2.3-0.4-2.9-1c-0.7-0.6-1.2-1.3-1.6-2.3
		c-0.4-0.9-0.7-2-1-3.4c-0.3-1.4-0.4-3-0.5-4.8c0-0.6,0-1.9,0-3.8c0-2,0-4,0.1-6.2c0-2.2,0.1-4.3,0.1-6.1c0.1-1.9,0.1-3.2,0.2-3.8
		c0.1-1.7,0.2-3.5,0.4-5.4c0.2-2,0.3-3.8,0.5-5.7s0.3-3.5,0.5-5c0.2-1.5,0.3-2.5,0.4-3.1c0.2-1.3,0.4-2.3,0.7-3
		c0.3-0.7,0.6-1.3,0.8-1.8c0.5-0.7,1.2-1.4,2.3-2c1.1-0.7,2.4-1.1,3.8-1.1c1.7-0.1,3.2,0,4.5,0.3c1.3,0.2,2.3,0.7,3.3,1.5
		c1,0.8,1.7,1.8,2.1,2.8C533,269.9,533.3,271.1,533.3,272.3z M527.5,314.1c0-0.2,0-1.4,0-3.6c0-2.1,0-4.8,0-7.9c0-3.1,0-6.4,0-10
		c0-3.6,0-7,0-10.1c0-3.1,0-5.8,0-7.9s0-3.4,0-3.8c-0.1-0.8-0.3-1.3-0.6-1.5c-0.4-0.2-0.9-0.4-1.6-0.4c-0.2,0-0.5,0-1.1,0
		c-0.6,0-1.2,0-1.7,0c-0.6,0-0.9,0.1-1.1,0.4c-0.2,0.3-0.3,0.7-0.3,1.3c0,0.1-0.1,1.1-0.2,3.3c-0.1,2.1-0.2,4.7-0.4,7.9
		c-0.2,3.1-0.4,6.5-0.5,10.2c-0.2,3.7-0.4,7.1-0.5,10.2c-0.2,3.2-0.3,5.8-0.4,7.9c-0.1,2.1-0.2,3.3-0.2,3.4
		c-0.1,0.6-0.1,1.4-0.2,2.4c-0.1,1,0,1.8,0.2,2.4c0.4,1.1,1,1.6,2,1.8h2.8c0.8-0.1,1.3-0.3,1.7-0.6c0.4-0.3,0.7-0.7,1-1.2
		c0.4-0.6,0.7-1.1,0.8-1.7C527.4,315.9,527.4,315.1,527.5,314.1z"/>
	<path class="st4" d="M558.7,272.3c0,0.3,0,1.3,0,2.8c0,1.6,0,3.4,0,5.6c0,2.2-0.1,4.5-0.1,7c-0.1,2.5-0.1,4.8-0.2,7
		c-0.1,2.2-0.1,4.1-0.1,5.8c0,1.6,0,2.7,0,3.2c0,0.6,0,1.4,0,2.3c0,0.9-0.1,1.8-0.1,2.8c-0.1,1-0.1,2-0.2,2.9
		c-0.1,1-0.2,1.9-0.4,2.6c-0.4,1.9-0.9,3.5-1.7,4.7c-0.8,1.2-1.5,2.1-2,2.5c-0.5,0.4-1.1,0.8-1.8,1.1c-0.8,0.3-1.8,0.4-3.2,0.3
		c-0.7,0-1.3,0-1.7,0c-0.4,0-0.8,0-1,0s-0.5,0-0.8,0c-0.2,0-0.5,0-0.8-0.1c-1.3-0.1-2.3-0.4-2.9-1c-0.7-0.6-1.2-1.3-1.6-2.3
		c-0.4-0.9-0.7-2-1-3.4c-0.3-1.4-0.4-3-0.5-4.8c0-0.6,0-1.9,0-3.8c0-2,0-4,0.1-6.2c0-2.2,0.1-4.3,0.1-6.1c0.1-1.9,0.1-3.2,0.2-3.8
		c0.1-1.7,0.2-3.5,0.4-5.4c0.2-2,0.3-3.8,0.5-5.7s0.3-3.5,0.5-5c0.2-1.5,0.3-2.5,0.4-3.1c0.2-1.3,0.4-2.3,0.7-3
		c0.3-0.7,0.6-1.3,0.8-1.8c0.5-0.7,1.2-1.4,2.3-2c1.1-0.7,2.4-1.1,3.8-1.1c1.7-0.1,3.2,0,4.5,0.3c1.3,0.2,2.3,0.7,3.3,1.5
		c1,0.8,1.7,1.8,2.1,2.8C558.4,269.9,558.6,271.1,558.7,272.3z M552.8,314.1c0-0.2,0-1.4,0-3.6c0-2.1,0-4.8,0-7.9c0-3.1,0-6.4,0-10
		c0-3.6,0-7,0-10.1c0-3.1,0-5.8,0-7.9s0-3.4,0-3.8c-0.1-0.8-0.3-1.3-0.6-1.5c-0.4-0.2-0.9-0.4-1.6-0.4c-0.2,0-0.5,0-1.1,0
		c-0.6,0-1.2,0-1.7,0c-0.6,0-0.9,0.1-1.1,0.4c-0.2,0.3-0.3,0.7-0.3,1.3c0,0.1-0.1,1.1-0.2,3.3c-0.1,2.1-0.2,4.7-0.4,7.9
		c-0.2,3.1-0.4,6.5-0.5,10.2c-0.2,3.7-0.4,7.1-0.5,10.2c-0.2,3.2-0.3,5.8-0.4,7.9c-0.1,2.1-0.2,3.3-0.2,3.4
		c-0.1,0.6-0.1,1.4-0.2,2.4c-0.1,1,0,1.8,0.2,2.4c0.4,1.1,1,1.6,2,1.8h2.8c0.8-0.1,1.3-0.3,1.7-0.6c0.4-0.3,0.7-0.7,1-1.2
		c0.4-0.6,0.7-1.1,0.8-1.7C552.7,315.9,552.8,315.1,552.8,314.1z"/>
	<path class="st4" d="M583.6,280.3c0.1,1.5,0.1,3.5,0.1,6c0,2.5,0,5.1,0,7.7c0,2.6-0.1,5.1-0.2,7.4c-0.1,2.3-0.2,4-0.4,5.1
		c-0.2,1.6-0.3,3-0.6,4.4c-0.2,1.4-0.6,2.8-1,4.1c-0.3,0.9-0.8,1.7-1.3,2.5c-0.6,0.8-1.3,1.5-2.1,2.1c-0.8,0.6-1.7,1.1-2.6,1.6
		c-0.9,0.4-1.8,0.8-2.8,0.9c-1,0.2-2.1,0.4-3.2,0.5c-1.1,0.1-2.1,0.2-3,0.2c-1.1,0.1-2.1,0.1-3.2,0.1c-0.1-1.7-0.1-3.3-0.1-4.9
		c0-1.4,0-2.9,0-4.4c0-1.5,0-2.9,0.1-4.1c0-0.9,0-2.2,0.1-4c0-1.8,0.1-3.8,0.2-6.1c0.1-2.3,0.1-4.8,0.2-7.4c0.1-2.6,0.1-5.3,0.2-7.9
		c0.2-6.1,0.3-12.9,0.4-20.2c0.8-0.1,1.6-0.1,2.5-0.1h4.9c1.9,0.1,3.5,0.6,4.9,1.5c1.4,0.9,2.6,2.1,3.7,3.6c1.2,1.6,2,3.3,2.4,5.2
		C583.3,276.2,583.5,278.2,583.6,280.3z M579,294.8c0.1-1.2,0.1-2.6,0.1-4.2c0-1.6,0-3.2,0-4.7c0-1.5-0.1-2.9-0.1-4.2
		c-0.1-1.3-0.1-2.2-0.2-2.8c-0.3-1.6-0.6-3.2-1.1-4.6c-0.5-1.4-0.9-2.6-1.3-3.3c-0.3-0.6-0.6-1-1-1.3c-0.4-0.3-0.8-0.5-1.3-0.6
		c-0.4-0.1-1-0.2-1.8-0.2h-1.2l-1.4,47.7h1.3c0.4,0,0.7,0,1.1,0c0.4,0,0.7-0.1,1-0.1c0.6-0.1,1.2-0.3,1.6-0.7
		c0.5-0.4,0.9-0.8,1.3-1.2c0.4-0.5,0.7-1.1,0.9-1.9c0.3-0.8,0.5-1.5,0.6-2.2c0.1-0.5,0.2-1.4,0.4-2.6c0.2-1.2,0.3-2.5,0.5-4
		c0.2-1.5,0.3-3,0.4-4.6C578.9,297.6,579,296.1,579,294.8z"/>
</g>
</svg>
