<?xml version="1.0" encoding="utf-8"?>
<!-- Generator: Adobe Illustrator 24.0.2, SVG Export Plug-In . SVG Version: 6.00 Build 0)  -->
<svg version="1.1" id="Livello_1" xmlns="http://www.w3.org/2000/svg" xmlns:xlink="http://www.w3.org/1999/xlink" x="0px" y="0px"
	 viewBox="0 0 661 549.7" style="enable-background:new 0 0 661 549.7;" xml:space="preserve">
<style type="text/css">
	.st0{fill-rule:evenodd;clip-rule:evenodd;fill:none;}
	.st1{fill-rule:evenodd;clip-rule:evenodd;fill:#BB060F;}
	.st2{fill-rule:evenodd;clip-rule:evenodd;}
	.st3{fill:#B90E1D;}
	.st4{font-family:'SwallowFalls';}
	.st5{font-size:75px;}
</style>
<g>
	<g>
		<path class="st0" d="M0.3,0c220,0,440,0,660,0c0.6-0.1,0.9,0.1,0.7,0.7c0,182.8,0,365.6,0,548.4c0.1,0.5-0.3,0.5-0.7,0.5
			c-220-0.2-440.7,0.3-660.2-0.2C0,366.5,0,183.6,0,0.8C0,0.4,0,0.1,0.3,0z M531.6,83.3C513,64.7,491.9,49,467.8,36
			c-24.7-13.2-55.1-25-87.4-30.2c-19.3-3.1-43.2-5.4-65.3-4.1c-18.4,1.1-37.5,4.2-53,7.9c-26.9,6.5-49.4,15.6-70.8,27.1
			C166.8,50,145.7,66.2,127,84.5c-37.7,37-65.6,84.6-78,145.9c-3.1,0.3-6.6,0.8-10.6,1.2c-4.7,0.5-10.4,0.3-12,2.4
			c0.1,0.8-0.2,1.6,0,2.6c0.6,3.7,5.3,7.9,7.9,10.1c3.6,3,7.9,4.5,11.5,6.5c-0.2,1.2-0.1,2.8-0.5,3.8c-5.3,0.1-10.4,0.4-15.8,0.2
			c-0.4,0.6-0.9,1.1-1.4,1.4c-0.5,4.5,3,6.3,5.3,8.6c5.8,5.8,14.3,9.1,22.3,11.5c-3.3,0.8-6,2.9-5.5,6.2
			c8.4,8.4,19.7,13.9,35.8,14.6c-1.8,1.8-4.8,2.5-5.3,5c-0.9,4.3,5,8.8,7.7,10.3c9.2,5.3,28.2,5.3,40.1,3.8c-2,2.5-4,4.2-6.2,7.2
			c-1.5,1.9-4.8,6.3-3.8,9.8c1.2,4.2,11.6,3.8,17.3,3.4c6.3-0.4,11.6-1.4,16.3-2.2c-1.2,2.7-2.4,4.7-4.1,7.7c-1.1,2-4.1,5.4-3.1,8.6
			c1,3.3,9.6,3.3,14.2,2.9c5.4-0.5,9.4-3.4,13-4.3c-1.9,3.7-4.9,11.2-2.2,16.6c17.7,1.4,25.9-10.1,33.6-18.7
			c0.4,4.8,0.3,9.6,1.4,14.4c0.8,3.4,2.8,9.3,6,9.8c3.1,0.6,6.4-3.4,8.2-5.3c5.7-6.2,11.1-14.6,13.9-22.1c0.9,3.2,2.1,7,3.8,10.8
			c1.6,3.4,4.1,8.8,9.1,8.2c5.3-3.3,7-10.3,8.9-17c0.1,2.4,1.6,5.1,2.9,7.9c1.7,3.5,2.8,7.7,8.6,6.5c4.8-3.4,6.7-9.8,8.4-16.3
			c1.9,3.9,3,12.9,10.3,10.6c2.3-0.7,4-7.4,4.8-2.9c2.2,13.1,3.6,27,3.6,39.8c0,5.2-1.5,8.2-2.9,12.5c-5.4,17.1-12.5,31.9-21.6,45.4
			c-1.6,2.4-4.4,4.6-3.8,7.4c0.4,1.9,2.6,2.4,4.1,3.1c-3.7,4.4,0.2,8.8,3.4,10.8c3.2,2.1,8.1,2.1,11.8,2.4c2.3,2.4,4.9,3.8,8.9,4.1
			c1.7,0.1,3.9-0.7,5.5-0.2c1,0.3,2.3,2.2,3.6,2.9c4.9,2.6,11.7,1.6,17-0.2c4.2,3.2,16.4,2.4,20.6-0.2c4.1,1.4,11.6,3,16.8,0.5
			c1.2-0.6,2.5-2.7,4.1-3.1c3.7-0.9,7,0.4,9.8-0.7c1.5-0.6,2.8-2.6,4.3-3.1c2-0.7,4.2-0.4,6-0.7c4.1-0.8,9.4-3.3,10.3-7
			c0.6-2.2-0.5-4.5-1.2-5.8c1.9-0.6,3.4-1,3.8-2.6c0.7-2.8-2.1-5.3-3.6-7.4c-8.2-12-13.3-23-18.7-37.2c-2.1-5.5-4.7-11.8-5.5-17
			c-0.5-3.2-0.1-6.3,0-9.4c0.5-12.3,1.2-24.6,3.8-36.2c2,2.5,3.2,5.8,8.6,4.8c3.1-2.3,3.9-6.8,6.2-9.8c0.6,2.1,0.9,5,1.9,7.4
			c1.2,3,3.7,7.5,6.2,8.2c1.3,0.4,2.6-0.3,4.1,0c4.7-3.9,6.2-10.9,8.4-17.3c1.5,5.9,2.3,13.4,5.3,18c1,1.5,3.4,4.5,5,4.8
			c4,0.8,7.2-4.9,8.6-7.9c1.8-3.8,2.5-8.2,4.1-11c3,8,7.9,15.8,13.7,21.8c2,2.1,5.2,5.7,8.4,5.3c6-3.6,6.8-14.5,7.2-24.5
			c5.7,7.2,13.6,16.7,25.4,18.7c2.3,0.4,6.8,1.3,8.4,0c1.1-1,1-5.1,0.7-7.4c-0.4-3.6-2.4-6.7-3.4-9.4c4.9,3.2,12.6,5.5,20.9,4.8
			c2.6-0.2,6-1.1,6.5-3.1c0.8-3.1-1.9-6.5-3.1-8.6c-1.5-2.8-3.4-5-3.8-7.4c6,1.1,15.9,2.9,23.8,2.4c2.6-0.2,6.7-0.6,8.4-1.9
			c2.7-2.1,0.1-7.7-1.2-9.8c-2.1-3.4-6.1-6.3-7.7-8.9c12.5,1.8,31,1.1,40.1-4.1c2.9-1.7,7.2-4.9,7.7-7.9c0.8-4.6-3.6-5.2-5-7.2
			c11.2-0.2,22-4.1,29.5-9.4c2.3-1.6,6.5-4.1,6-7.2c-0.4-2.5-3.4-3.2-5.5-4.6c8.4-2,16.9-5.7,22.6-11.3c2.3-2.2,5.7-4.8,5-8.6
			c-0.6-0.4-1.1-0.9-1.4-1.4c-5.6-0.1-11.8,0.3-17-0.2c-0.2-1.2-0.3-2.4-0.2-3.8c4.1-1.4,8.6-3.3,12.2-6.2c3.3-2.7,8.4-7.4,8.2-13
			c-0.6-0.4-1.1-0.9-1.4-1.4c-7.5-0.7-15.1-1.3-22.1-2.4C599.3,169.7,571.2,122.9,531.6,83.3z"/>
		<path class="st1" d="M611.1,232.6c7,1.1,14.6,1.7,22.1,2.4c0.4,0.6,0.9,1.1,1.4,1.4c0.2,5.6-4.9,10.3-8.2,13
			c-3.7,3-8.2,4.8-12.2,6.2c-0.1,1.4,0.1,2.7,0.2,3.8c5.2,0.5,11.4,0.1,17,0.2c0.4,0.6,0.9,1.1,1.4,1.4c0.6,3.8-2.8,6.4-5,8.6
			c-5.6,5.5-14.1,9.3-22.6,11.3c2.1,1.3,5.1,2,5.5,4.6c0.5,3-3.7,5.6-6,7.2c-7.6,5.3-18.3,9.2-29.5,9.4c1.4,2,5.8,2.6,5,7.2
			c-0.5,3-4.8,6.2-7.7,7.9c-9.1,5.2-27.6,5.8-40.1,4.1c1.6,2.6,5.6,5.5,7.7,8.9c1.3,2.2,3.9,7.7,1.2,9.8c-1.7,1.3-5.8,1.7-8.4,1.9
			c-7.9,0.5-17.7-1.3-23.8-2.4c0.5,2.5,2.3,4.7,3.8,7.4c1.2,2.1,3.9,5.5,3.1,8.6c-0.5,2-3.9,2.9-6.5,3.1c-8.3,0.7-16-1.6-20.9-4.8
			c1,2.6,3,5.8,3.4,9.4c0.3,2.3,0.4,6.5-0.7,7.4c-1.6,1.3-6.1,0.4-8.4,0c-11.8-2-19.7-11.6-25.4-18.7c-0.4,10-1.2,20.9-7.2,24.5
			c-3.2,0.4-6.4-3.1-8.4-5.3c-5.7-6.1-10.7-13.8-13.7-21.8c-1.6,2.9-2.2,7.2-4.1,11c-1.4,3-4.7,8.7-8.6,7.9c-1.7-0.3-4.1-3.3-5-4.8
			c-2.9-4.6-3.8-12.1-5.3-18c-2.2,6.4-3.7,13.4-8.4,17.3c-1.5-0.3-2.8,0.4-4.1,0c-2.5-0.7-5-5.2-6.2-8.2c-1-2.5-1.3-5.3-1.9-7.4
			c-2.3,3-3.2,7.5-6.2,9.8c-5.5,1-6.6-2.3-8.6-4.8c-2.7,11.7-3.3,24-3.8,36.2c-0.1,3.1-0.5,6.2,0,9.4c0.8,5.2,3.4,11.5,5.5,17
			c5.4,14.2,10.5,25.2,18.7,37.2c1.5,2.2,4.3,4.6,3.6,7.4c-0.4,1.6-1.9,2.1-3.8,2.6c0.7,1.2,1.8,3.5,1.2,5.8
			c-0.9,3.6-6.3,6.2-10.3,7c-1.8,0.3-4,0.1-6,0.7c-1.6,0.5-2.8,2.5-4.3,3.1c-2.8,1.2-6.1-0.2-9.8,0.7c-1.6,0.4-2.9,2.5-4.1,3.1
			c-5.2,2.5-12.7,0.9-16.8-0.5c-4.2,2.7-16.4,3.4-20.6,0.2c-5.3,1.9-12.1,2.8-17,0.2c-1.3-0.7-2.6-2.6-3.6-2.9
			c-1.7-0.4-3.8,0.4-5.5,0.2c-4-0.3-6.6-1.6-8.9-4.1c-3.7-0.3-8.5-0.3-11.8-2.4c-3.2-2-7.1-6.4-3.4-10.8c-1.5-0.7-3.7-1.3-4.1-3.1
			c-0.5-2.8,2.2-5.1,3.8-7.4c9.1-13.5,16.2-28.3,21.6-45.4c1.4-4.3,2.9-7.3,2.9-12.5c0-12.8-1.4-26.8-3.6-39.8
			c-0.8-4.5-2.5,2.1-4.8,2.9c-7.3,2.3-8.5-6.7-10.3-10.6c-1.7,6.5-3.6,12.9-8.4,16.3c-5.9,1.3-7-3-8.6-6.5c-1.3-2.8-2.8-5.5-2.9-7.9
			c-1.9,6.7-3.6,13.7-8.9,17c-5,0.7-7.5-4.7-9.1-8.2c-1.8-3.8-2.9-7.6-3.8-10.8c-2.8,7.5-8.2,15.8-13.9,22.1
			c-1.8,1.9-5.1,5.8-8.2,5.3c-3.2-0.6-5.2-6.4-6-9.8c-1.1-4.8-1-9.6-1.4-14.4c-7.7,8.7-15.9,20.1-33.6,18.7
			c-2.7-5.4,0.3-12.9,2.2-16.6c-3.6,1-7.5,3.8-13,4.3c-4.6,0.4-13.1,0.4-14.2-2.9c-1-3.2,2-6.7,3.1-8.6c1.6-3,2.8-5,4.1-7.7
			c-4.7,0.8-10,1.7-16.3,2.2c-5.7,0.4-16.1,0.8-17.3-3.4c-1-3.6,2.4-7.9,3.8-9.8c2.2-3,4.3-4.7,6.2-7.2c-11.8,1.4-30.9,1.4-40.1-3.8
			c-2.7-1.6-8.6-6-7.7-10.3c0.5-2.6,3.4-3.3,5.3-5c-16.1-0.7-27.4-6.2-35.8-14.6c-0.5-3.3,2.2-5.4,5.5-6.2
			c-8-2.4-16.5-5.7-22.3-11.5c-2.3-2.3-5.8-4.2-5.3-8.6c0.6-0.4,1.1-0.9,1.4-1.4c5.5,0.1,10.6-0.1,15.8-0.2c0.4-1,0.2-2.6,0.5-3.8
			c-3.6-2-7.9-3.5-11.5-6.5c-2.6-2.1-7.3-6.3-7.9-10.1c-0.2-1,0.1-1.8,0-2.6c1.6-2.1,7.3-1.9,12-2.4c3.9-0.4,7.5-0.9,10.6-1.2
			c12.4-61.3,40.3-109,78-145.9c18.7-18.4,39.8-34.5,64.3-47.8c21.4-11.6,43.9-20.7,70.8-27.1c15.5-3.7,34.6-6.8,53-7.9
			c22.1-1.4,46,0.9,65.3,4.1c32.3,5.2,62.7,17,87.4,30.2c24.1,13,45.3,28.7,63.8,47.3C571.2,122.9,599.3,169.7,611.1,232.6z
			 M354.3,132.3c-2.7,0.7-5.4,2.1-7.4,2.2c-4.3,0.2-7-1.6-11.8-1.2c-16.5,1.3-24.3,13.2-30.2,25c-4.5,8.9-7.8,20-11,30.5
			c-1.1,3.5-1.5,8.3-3.1,10.8c-1.2,1.9-5.9,4.6-8.4,5.5c-6.2,2.4-13.3,2.3-22.1,2.6c-14.6,0.6-30.1,0.9-45.1,0.2
			c-11.5-0.5-22.7-1.7-34.1-2.9c-11.6-1.2-23.3-3-35.3-2.4c-8.2,0.4-16.3,2.2-24,3.8c-17.2,3.6-39.6,1.4-59.8,3.4
			c3.8,9.6,15.1,11,24.2,14.9c-2.8,3.7-7.9,3.8-12.5,4.8c-14.7,3.2-30,4.1-44.6,5.8c6.2,15,25,18.6,46.1,18
			c-9.7,7.2-26.8,6.5-44.4,6.7c2.9,5.6,8.3,9.3,14.2,12c6.1,2.8,13.2,4.3,20.6,5.8c-3.8,2.3-9,3.3-12.7,5.8
			c4.3,5,11.6,9.1,19.2,11.5c7.9,2.6,18,2.7,27.1,1c-2.2,4-8,4.5-12.2,6.7c-4.7,2.4-3.9,4.6-0.2,7.7c10.5,8.7,33.9,7.4,49.4,4.8
			c-4.9,6.8-13,10.3-15.1,19.9c10.9,4.3,25.2-0.1,36-1.7c-2.7,6.9-7.2,12-9.6,19.2c12.7,4.1,22.8-3.2,30.5-7.9
			c-1.4,8-7.2,11.5-6.7,21.4c19,0.2,25.5-13.4,33.8-23c2.2,9.4,0.1,23.2,6.5,28.6c10.8-7.5,16.8-19.8,21.6-33.4
			c3.4,8.9,4.2,20.3,11.5,25.2c7.1-5,6.3-17.8,10.3-25.9c0.7,4.5,1.4,8.3,2.9,12.7c0.8,2.2,3.2,9.7,5.3,10.3
			c2.4,0.7,4.4-2.3,5.3-3.8c3.5-6.4,3.9-14.9,5.8-22.1c0.6,3.7,1.5,7.2,2.9,11c1,2.8,2.8,8.6,5,9.1c2.8,0.6,4.1-2.9,5-4.8
			c1.2-2.5,2.2-4.7,2.9-7.2c2.8,12.5,4.9,26.1,5.5,40.3c0.2,5.2,0.9,12.3,0,16.8c-1.1,5.4-3.3,11.3-5.3,16.6
			c-5.8,15.2-14.1,30.4-22.6,42.5c1.5,1.5,5.1,0.8,6.5,2.4c-0.8,2.3-4.1,2.8-4.1,5.3c0,4.3,9.4,6.9,15.1,6.7
			c2.6,3.4,9.1,4.8,15.1,3.4c2,6.3,14.2,5.5,19.2,2.4c1.7,3,6.5,2.3,10.8,2.2c4.2-0.1,7.6-0.1,9.4-2.4c5.1,3.2,17,3.7,19.2-2.4
			c2.9,0.4,7.4,1.2,10.8-0.2c1.3-0.6,3-2.7,4.3-3.1c2.6-0.9,6.2-0.2,8.9-1.2c2.7-1,6-3.4,6-5.5c0.1-2.7-3.3-2.9-3.8-5.5
			c1.6-1.1,4.5-1,6.2-1.9c-2.4-4.6-5.5-8.9-8.4-13.7c-5.7-9.4-10.3-18.8-14.2-29.3c-1.8-5.1-4.6-11.9-5.3-17
			c-0.6-4.8-0.1-10.2,0.2-15.1c1-15,2-28.9,5.5-41c0.7,2.4,1.5,5,2.6,7.2c1.1,2,2.3,4.9,5.5,4.6c4.1-5.2,5.9-12.7,7.7-20.2
			c1.7,7.3,2.1,15.8,5.5,21.8c0.9,1.6,2.8,4.7,5.3,4.1c1.6-0.4,3.6-5.3,4.3-7c2-5.1,3-11.5,4.3-17c5.9,8,3.8,24.1,12.2,29.5
			c7.1-5.1,7.8-16.7,11.5-25.2c4.2,13.2,10.6,26.2,21.6,33.4c6-5.7,4.1-19.3,6.2-28.8c8.7,10.9,15.2,23,33.8,23.5
			c0.7-9.9-5.8-13.9-6.5-21.6c7.3,5.1,17.7,12,30.2,7.9c-2.4-7.5-7.4-12.4-9.4-19.2c11.1,1.8,24.2,5.9,35.8,1.9
			c-1.8-9.8-10.8-13.7-15.1-20.2c14.8,2.7,39,3.8,49.2-4.6c1.4-1.2,3.7-3.4,3.6-4.8c-0.2-1.6-3.9-3.4-5.5-4.1
			c-3.9-1.7-8.5-2.1-10.3-5.8c14.2,3.2,28.6-0.5,37.7-5.5c3.4-1.9,6.5-4.1,8.6-6.7c-3.3-3-9.4-3.3-12.7-6.2
			c14.5-2,28.2-6.6,34.8-17.3c-16.5-0.5-35.7,0.5-44.2-7.2c15,0.9,28.7-1,37.4-7.2c3.6-2.6,6.9-6.1,8.4-10.6
			c-15.8-1.6-32.1-2.9-45.1-5.8c-4.2-0.9-9.6-1.1-12-5c9.6-3.3,20.6-5.3,24.2-14.6c-13.4-1.7-27.1-0.4-40.6-1.2
			c-12.3-0.7-24.4-3.4-36-5c-12.9-1.8-26.9-0.5-38.6,1c-26.1,3.2-53.9,4.4-83.5,3.1c-11.3-0.5-20.8-0.2-27.1-6
			c-3.7-3.4-6.3-13-6.7-20.2c-0.6-11.1,4.6-15.5,9.8-21.1c9.6-10.2,22.2-18.2,32.9-26.4C397,123.7,370.8,128,354.3,132.3z"/>
		<path class="st2" d="M409.2,136.4c-10.7,8.2-23.3,16.2-32.9,26.4c-5.3,5.6-10.5,10-9.8,21.1c0.4,7.1,3,16.8,6.7,20.2
			c6.4,5.8,15.9,5.5,27.1,6c29.7,1.2,57.5,0.1,83.5-3.1c11.7-1.4,25.8-2.8,38.6-1c11.6,1.6,23.7,4.3,36,5
			c13.5,0.8,27.2-0.5,40.6,1.2c-3.6,9.3-14.6,11.3-24.2,14.6c2.4,3.9,7.8,4.1,12,5c13,2.8,29.3,4.2,45.1,5.8
			c-1.5,4.4-4.8,8-8.4,10.6c-8.8,6.2-22.4,8.1-37.4,7.2c8.5,7.7,27.7,6.7,44.2,7.2c-6.6,10.7-20.3,15.3-34.8,17.3
			c3.4,3,9.4,3.3,12.7,6.2c-2.1,2.6-5.2,4.8-8.6,6.7c-9.1,5-23.4,8.8-37.7,5.5c1.9,3.7,6.4,4.1,10.3,5.8c1.6,0.7,5.4,2.5,5.5,4.1
			c0.1,1.4-2.2,3.6-3.6,4.8c-10.2,8.4-34.4,7.2-49.2,4.6c4.4,6.4,13.3,10.4,15.1,20.2c-11.5,3.9-24.6-0.1-35.8-1.9
			c2,6.8,7,11.7,9.4,19.2c-12.5,4.1-23-2.9-30.2-7.9c0.7,7.7,7.2,11.7,6.5,21.6c-18.7-0.5-25.2-12.6-33.8-23.5
			c-2.1,9.5-0.3,23.1-6.2,28.8c-11-7.1-17.4-20.2-21.6-33.4c-3.7,8.5-4.4,20.1-11.5,25.2c-8.5-5.4-6.3-21.5-12.2-29.5
			c-1.3,5.5-2.3,11.9-4.3,17c-0.7,1.7-2.7,6.5-4.3,7c-2.4,0.7-4.4-2.5-5.3-4.1c-3.4-6-3.9-14.5-5.5-21.8c-1.8,7.5-3.6,15-7.7,20.2
			c-3.3,0.3-4.5-2.6-5.5-4.6c-1.2-2.2-1.9-4.8-2.6-7.2c-3.5,12.1-4.5,26-5.5,41c-0.3,4.9-0.9,10.3-0.2,15.1c0.7,5.1,3.4,12,5.3,17
			c3.8,10.5,8.4,19.8,14.2,29.3c2.9,4.7,6,9.1,8.4,13.7c-1.8,0.9-4.6,0.8-6.2,1.9c0.6,2.6,3.9,2.8,3.8,5.5c0,2.1-3.3,4.5-6,5.5
			c-2.7,1-6.2,0.3-8.9,1.2c-1.3,0.4-3,2.5-4.3,3.1c-3.4,1.5-7.9,0.6-10.8,0.2c-2.2,6.1-14.1,5.6-19.2,2.4c-1.8,2.3-5.1,2.3-9.4,2.4
			c-4.3,0.1-9.1,0.8-10.8-2.2c-5,3.1-17.2,3.9-19.2-2.4c-6,1.5-12.5,0.1-15.1-3.4c-5.7,0.2-15.1-2.4-15.1-6.7c0-2.5,3.3-3,4.1-5.3
			c-1.4-1.6-5-0.9-6.5-2.4c8.5-12.1,16.8-27.3,22.6-42.5c2-5.3,4.2-11.2,5.3-16.6c0.9-4.5,0.2-11.6,0-16.8
			c-0.6-14.2-2.8-27.8-5.5-40.3c-0.6,2.5-1.6,4.7-2.9,7.2c-1,1.9-2.2,5.4-5,4.8c-2.3-0.5-4.1-6.3-5-9.1c-1.3-3.8-2.3-7.3-2.9-11
			c-1.9,7.2-2.2,15.7-5.8,22.1c-0.8,1.5-2.9,4.6-5.3,3.8c-2.1-0.6-4.5-8.1-5.3-10.3c-1.5-4.4-2.2-8.2-2.9-12.7
			c-4,8.1-3.2,20.9-10.3,25.9c-7.3-4.9-8.1-16.3-11.5-25.2c-4.8,13.5-10.8,25.9-21.6,33.4c-6.3-5.3-4.2-19.1-6.5-28.6
			c-8.4,9.6-14.8,23.2-33.8,23c-0.5-9.8,5.4-13.4,6.7-21.4c-7.6,4.8-17.8,12.1-30.5,7.9c2.4-7.2,6.9-12.3,9.6-19.2
			c-10.8,1.6-25.1,6-36,1.7c2.1-9.6,10.3-13.1,15.1-19.9c-15.5,2.6-38.9,3.9-49.4-4.8c-3.7-3.1-4.4-5.2,0.2-7.7
			c4.3-2.2,10.1-2.8,12.2-6.7c-9.1,1.8-19.2,1.6-27.1-1c-7.6-2.5-14.9-6.5-19.2-11.5c3.7-2.4,8.9-3.4,12.7-5.8
			c-7.4-1.5-14.6-2.9-20.6-5.8c-5.9-2.7-11.2-6.4-14.2-12c17.6-0.2,34.7,0.5,44.4-6.7c-21.1,0.6-39.9-3-46.1-18
			c14.6-1.6,29.9-2.6,44.6-5.8c4.6-1,9.7-1.1,12.5-4.8c-9.1-3.8-20.4-5.3-24.2-14.9c20.2-2,42.6,0.2,59.8-3.4
			c7.7-1.6,15.8-3.4,24-3.8c12-0.6,23.7,1.2,35.3,2.4c11.4,1.1,22.6,2.4,34.1,2.9c15,0.7,30.5,0.4,45.1-0.2
			c8.8-0.4,15.9-0.2,22.1-2.6c2.5-1,7.2-3.6,8.4-5.5c1.6-2.5,2-7.3,3.1-10.8c3.2-10.5,6.5-21.5,11-30.5c5.9-11.7,13.8-23.7,30.2-25
			c4.7-0.4,7.5,1.4,11.8,1.2c2-0.1,4.8-1.5,7.4-2.2C370.8,128,397,123.7,409.2,136.4z"/>
	</g>
</g>
<text transform="matrix(1 0 0 1 87.0107 284.6509)" class="st3 st4 st5">the last drop of blood</text>
</svg>
