<?xml version="1.0" encoding="utf-8"?>
<!-- Generator: Adobe Illustrator 24.0.2, SVG Export Plug-In . SVG Version: 6.00 Build 0)  -->
<svg version="1.1" id="Livello_1" xmlns="http://www.w3.org/2000/svg" xmlns:xlink="http://www.w3.org/1999/xlink" x="0px" y="0px"
	 viewBox="0 0 443 242.2" style="enable-background:new 0 0 443 242.2;" xml:space="preserve">
<style type="text/css">
	.st0{fill:none;}
	.st1{fill-rule:evenodd;clip-rule:evenodd;fill:#BB060F;}
	.st2{fill-rule:evenodd;clip-rule:evenodd;}
	.st3{fill-rule:evenodd;clip-rule:evenodd;fill:#BB060F;stroke:#BB060F;stroke-miterlimit:10;}
	.st4{fill-rule:evenodd;clip-rule:evenodd;stroke:#000000;stroke-miterlimit:10;}
</style>
<g>
	<g>
		<path class="st0" d="M4.3,199.5c0-39.6,0-79.2,0-118.8c6.8,28.3,26.6,46,59.3,53.1c6.3,39.4,67.5,64.8,114.5,43.1
			c11.2,9.6,27.9,19.9,49.9,22.5C153.4,199.5,78.9,199.5,4.3,199.5z"/>
		<path class="st1" d="M178.1,177c-47,21.6-108.3-3.8-114.4-43.1C30.9,126.8,11,109.1,4.3,80.7c-0.2-0.6-0.6-4.2-0.6-8.3
			c0-4.1,0.5-8,0.6-8.2c8.1-31.1,31.8-52.7,70.2-55.1c14-0.8,26.9,1,36.2,4.2c4.9,1.7,10.9,6.6,16.7,7.1c6.5,0.5,15.8-2.7,24.6-2.4
			c6.8,0.3,11.8,1.5,17.4,2.4c11.3-6.7,23.7-12.5,40.5-14.8c6.8,0,13.5,0,20.3,0c17.3,2.1,29.7,8.1,41.3,14.8
			c14.1-6.8,28.8-10.7,47.8-9.4c10.9,0.7,20.6,5.8,28.2,6.5c4.7,0.4,10.2-1.2,14.5-1.2c43.8,0.2,68.7,24.3,76.8,55
			c0.2,0.7,0.6,3.9,0.6,7.9c0,4.3-0.5,8-0.6,8.6c-7.1,29.2-27.1,47-59.3,53.2c-4.5,0.9-10.5,0.4-15.9,1.8c-3.4,0.9-6.9,5-10.9,7.7
			c-12,8.2-26.2,13.3-44.9,14.2c-11.6,18.2-30.3,30.4-58.6,34.9c-7,0-14,0-21,0C206,196.9,189.3,186.6,178.1,177z M270.6,27
			c-14.7-8.2-29.1-17.4-55.8-15.9c-10.1,0.6-20,3.1-26.8,5.9c-5.4,2.2-12,8.9-17.4,9.4c-3.4,0.3-8.5-2-13.7-2.4
			c-4.9-0.4-10.9-0.3-15.9,0c-4.9,0.4-11.2,2.7-15.2,2.4c-6.5-0.6-12.8-6.2-17.4-7.7C58,1.6,6.4,35.5,10.7,77.8
			c2.7,26.9,25.2,45,58,51.4c6.1,31.3,45.9,61.5,94.8,47.3c4.5-1.4,11.5-6.1,15.2-5.9c2.8,0.2,7.2,4.8,10.9,7.7
			c10.1,7.8,23.3,14.5,41.3,15.9c40,3.2,58.7-16.2,73.2-34.3c15.6-1.5,28.5-4.4,39.1-10.1c7.3-3.9,11.7-11,17.4-12.4
			c5.6-1.4,11.5-0.4,15.9-1.2c29.9-5.3,59-26.9,55.8-61.5c-2.8-31.4-35.6-57.8-85.4-51.4C325.9,12.8,287.7,15.5,270.6,27z"/>
		<path class="st0" d="M307.8,164.6c18.8-0.9,33-5.9,44.9-14.2c4-2.7,7.5-6.8,10.9-7.7c5.4-1.4,11.3-0.9,15.9-1.8
			c32.3-6.2,52.3-24,59.3-53.2c0,37.3,0,74.5,0,111.7c-63.3,0-126.5,0-189.8,0C277.4,195,296,182.8,307.8,164.6z"/>
		<path class="st2" d="M346.8,23.3c49.8-6.5,82.5,20,85.4,51.4c3.1,34.6-26,56.2-55.8,61.5c-4.3,0.8-10.2-0.2-15.9,1.2
			c-5.7,1.4-10,8.5-17.4,12.4c-10.6,5.7-23.5,8.6-39.1,10.1c-14.5,18-33.1,37.5-73.2,34.3c-17.9-1.4-31.2-8.1-41.3-15.9
			c-3.7-2.9-8-7.5-10.9-7.7c-3.7-0.2-10.7,4.6-15.2,5.9c-48.9,14.2-88.8-16.1-94.8-47.3c-32.8-6.3-55.2-24.4-58-51.4
			C6.4,35.4,58,1.6,108.6,18.7c4.4,1.5,10.8,7.1,17.4,7.7c4,0.3,10.3-2.1,15.2-2.4c5-0.3,11-0.4,15.9,0c5.2,0.4,10.3,2.8,13.7,2.4
			c5.3-0.6,12-7.2,17.4-9.4c6.8-2.8,16.7-5.4,26.8-5.9c26.8-1.6,41.1,7.7,55.8,15.9C287.7,15.5,325.9,12.8,346.8,23.3z M299.1,155.8
			c24.8-0.8,39.3-10,52.2-20.7c41-0.7,74.4-22.3,74.6-54.4c0.1-12.3-5.3-22.3-13-29.5c16.2,38.7-16.3,66.6-54.3,72.7
			c-4.2,0.7-10-0.1-15.2,1.2c-5.1,1.3-12.6,8.4-18.1,11.2c-9.7,4.8-17.9,8-33.3,8.2c-9.1,16.2-26.8,30.4-52.9,33.1
			c-27.5,2.8-47.6-7.8-62.3-20.1c10.4,16.2,28,29.4,55,31.3C265.1,191.3,287.9,174.4,299.1,155.8z M173,167.6
			c-1.4-4.4-6.4-5.8-7.9-10.1c-29.2,14.5-71.9,3-85.4-15.9C88.1,168.9,137.8,185.1,173,167.6z M306.2,77.8
			c12.1,45.9-43.9,83.2-97.8,65c-5.6-1.8-10.7-7.7-16.7-4.7c1.7,5.2,10.9,9.5,18.1,12.4C266.8,172.9,334,125.7,306.2,77.8z
			 M66.6,120.3c11.1,8.2,27.1,18.1,47.8,19.5c21.4,1.5,38-4.2,51.4-11.8c-3.2-2.1-7.5-3.4-11.6-4.7c-9.7,4.2-20.1,7.1-33.3,7.1
			c-36.6,0-61.2-21.1-71-44.3c1.4,13.2,7.1,23.1,14.5,31.3c-17.3-3-29.1-10.5-39.8-18.9c8.4,14.6,23.9,23.4,43.4,29
			C69.7,125.6,66.5,122.7,66.6,120.3z"/>
		<path class="st3" d="M231.6,188.9c-27-1.9-44.6-15-55-31.3c14.7,12.2,34.8,22.9,62.3,20.1c26.1-2.6,43.7-16.9,52.9-33.1
			c15.5-0.2,23.6-3.4,33.3-8.2c5.7-2.8,13-9.9,18.1-11.2c5.2-1.4,11-0.6,15.2-1.2c38.1-6.1,70.5-34,54.3-72.7
			c7.8,7.2,13.1,17.2,13,29.5c-0.3,32.1-33.7,53.6-74.6,54.4c-12.8,10.6-27.4,19.9-52.2,20.7C287.9,174.4,265.1,191.3,231.6,188.9z"
			/>
		<path class="st1" d="M79.6,141.6c13.5,18.8,56.2,30.4,85.4,15.9c1.6,4.2,6.5,5.8,7.9,10.1C137.8,185.1,88.1,168.9,79.6,141.6z"/>
		<path class="st1" d="M209.9,150.4c-7.3-2.9-16.6-7.2-18.1-12.4c6-3,11.1,2.9,16.7,4.7c53.8,18.3,109.9-19.1,97.8-65
			C334,125.7,266.8,172.9,209.9,150.4z"/>
		<path class="st0" d="M361.9,16.3c-4.3,0-9.9,1.6-14.5,1.2c-7.6-0.6-17.4-5.8-28.2-6.5c-18.8-1.3-33.6,2.6-47.8,9.4
			c-11.6-6.7-24-12.7-41.3-14.8c69.5,0,139.1,0,208.6,0c0,21.9,0,43.8,0,65.6C430.7,40.6,405.9,16.4,361.9,16.3z"/>
		<path class="st0" d="M4.2,5.6c68.6,0,137.1,0,205.7,0c-16.7,2.3-29.2,8.1-40.5,14.8c-5.6-0.9-10.6-2.2-17.4-2.4
			c-8.8-0.3-18.1,3-24.6,2.4c-5.8-0.5-11.8-5.5-16.7-7.1c-9.3-3.1-22.2-5-36.2-4.2C36.1,11.4,12.4,33,4.3,64.2
			C4.3,44.6,4.3,25.2,4.2,5.6z"/>
		<path class="st4" d="M68,127.4c-19.5-5.6-35-14.3-43.5-28.9c10.7,8.4,22.6,15.8,39.8,18.9c-7.6-8.2-13.1-18-14.5-31.3
			c9.8,23.4,34.4,44.3,71,44.3c13.2,0,23.7-3,33.3-7.1c4.1,1.4,8.3,2.6,11.6,4.7c-13.4,7.6-29.9,13.4-51.4,11.8
			c-20.7-1.5-36.7-11.4-47.8-19.5C66.5,122.7,69.7,125.6,68,127.4z"/>
	</g>
</g>
</svg>
