<?xml version="1.0" encoding="utf-8"?>
<!-- Generator: Adobe Illustrator 24.0.2, SVG Export Plug-In . SVG Version: 6.00 Build 0)  -->
<svg version="1.1" id="Livello_1" xmlns="http://www.w3.org/2000/svg" xmlns:xlink="http://www.w3.org/1999/xlink" x="0px" y="0px"
	 viewBox="0 0 443 242.2" style="enable-background:new 0 0 443 242.2;" xml:space="preserve">
<style type="text/css">
	.st0{fill-rule:evenodd;clip-rule:evenodd;fill:none;}
	.st1{fill-rule:evenodd;clip-rule:evenodd;fill:#BB060F;}
	.st2{fill-rule:evenodd;clip-rule:evenodd;}
</style>
<g>
	<g>
		<path class="st0" d="M228.2,0c-22.5,3.3-39.5,16.1-50.9,28.1C129.3,1.1,66.9,32.8,60.5,82C27.1,90.9,6.9,113,0,148.4
			C0,98.9,0,49.5,0,0C76.1,0,152.1,0,228.2,0z"/>
		<path class="st1" d="M228.2,0c7.1,0,14.3,0,21.4,0c28.9,5.6,48,20.9,59.8,43.6c19.1,1.1,33.6,7.5,45.8,17.7
			c4.1,3.4,7.6,8.5,11.1,9.6c5.5,1.7,11.6,1.1,16.2,2.2c32.9,7.8,53.3,30,60.5,66.5c0,6.9,0,13.8,0,20.7
			c-8.2,38.3-33.6,68.5-78.3,68.7c-4.4,0-10-2-14.8-1.5c-7.8,0.8-17.7,7.2-28.8,8.1c-19.3,1.6-34.3-3.3-48.7-11.8
			c-11.8,8.4-24.5,15.9-42.1,18.5c-6.9,0-13.8,0-20.7,0c-17.1-2.9-29.8-10.1-41.3-18.5c-5.7,1.1-10.8,2.6-17.7,3
			c-9,0.4-18.5-3.6-25.1-3c-5.9,0.6-12,6.8-17,8.9c-9.5,3.9-22.6,6.2-36.9,5.2C32.4,234.9,8.3,207.9,0,169.1c0-6.9,0-13.8,0-20.7
			C6.9,113,27.1,90.9,60.5,82c6.3-49.2,68.8-80.9,116.7-53.9C188.7,16.1,205.7,3.3,228.2,0z M349.3,220c50.8,8,84.2-25,87.1-64.2
			c3.3-43.2-26.4-70.2-56.9-76.8c-4.5-1-10.5,0.3-16.2-1.5c-5.8-1.8-10.3-10.6-17.7-15.5c-10.8-7.1-24-10.7-39.9-12.6
			c-14.7-22.6-33.8-46.8-74.6-42.8c-18.3,1.8-31.8,10.2-42.1,19.9c-3.8,3.6-8.2,9.4-11.1,9.6c-3.8,0.2-10.9-5.7-15.5-7.4
			c-49.9-17.7-90.5,20-96.7,59.1c-33.4,8-56.3,30.6-59.1,64.2c-4.4,52.9,48.2,95.2,99.7,73.8c4.6-1.9,11.1-8.9,17.7-9.6
			c4.1-0.4,10.5,2.5,15.5,3c5.1,0.4,11.2,0.5,16.2,0c5.3-0.5,10.5-3.4,14-3c5.5,0.7,12.2,9,17.7,11.8c6.9,3.5,17,6.7,27.3,7.4
			c27.2,1.9,41.9-9.7,56.9-19.9C289,229.9,328,233.2,349.3,220z"/>
		<path class="st0" d="M249.6,0c64.5,0,129,0,193.5,0c0,46.5,0,93,0,139.6c-7.2-36.5-27.6-58.7-60.5-66.5
			c-4.7-1.1-10.7-0.5-16.2-2.2c-3.5-1.1-7-6.2-11.1-9.6c-12.2-10.3-26.6-16.6-45.8-17.7C297.5,20.9,278.5,5.6,249.6,0z"/>
		<path class="st2" d="M271.7,215.6c-15,10.3-29.6,21.9-56.9,19.9c-10.3-0.7-20.4-3.9-27.3-7.4c-5.5-2.8-12.3-11.1-17.7-11.8
			c-3.5-0.5-8.7,2.5-14,3c-5,0.5-11.1,0.4-16.2,0c-5-0.4-11.4-3.4-15.5-3c-6.7,0.7-13.2,7.7-17.7,9.6C54.8,247.3,2.2,205,6.6,152.1
			c2.8-33.7,25.7-56.3,59.1-64.2c6.2-39,46.8-76.8,96.7-59.1c4.6,1.7,11.7,7.6,15.5,7.4c2.9-0.2,7.3-6,11.1-9.6
			c10.3-9.8,23.8-18.2,42.1-19.9c40.8-4,59.8,20.3,74.6,42.8c15.9,1.8,29.1,5.5,39.9,12.6c7.5,4.9,11.9,13.7,17.7,15.5
			c5.8,1.8,11.8,0.5,16.2,1.5c30.4,6.6,60.1,33.6,56.9,76.8c-3,39.2-36.3,72.3-87.1,64.2C328,233.2,289,229.9,271.7,215.6z
			 M231.9,13.3c-27.5,2.4-45.5,18.8-56.1,39.1c15-15.3,35.5-28.6,63.5-25.1c26.6,3.3,44.6,21.1,53.9,41.3c15.7,0.3,24.1,4.3,34,10.3
			c5.7,3.5,13.3,12.4,18.5,14c5.3,1.6,11.2,0.6,15.5,1.5c38.8,7.6,71.9,42.5,55.4,90.8c7.9-9,13.4-21.5,13.3-36.9
			c-0.2-40.1-34.3-67-76.1-67.9c-13.1-13.3-27.9-24.8-53.2-25.8C289.2,31.4,266,10.3,231.9,13.3z M76.8,72.4
			c13.8-23.6,57.3-38,87.1-19.9c1.6-5.3,6.7-7.1,8.1-12.6C136.2,18,85.5,38.2,76.8,72.4z M209.7,61.3c-7.4,3.6-16.8,9-18.5,15.5
			c6.1,3.7,11.3-3.6,17-5.9c54.9-22.7,112,23.9,99.7,81.2C336.2,92.2,267.7,33.3,209.7,61.3z M65,90.1c-19.9,7-35.7,17.9-44.3,36.2
			c10.9-10.5,23-19.8,40.6-23.6c-7.6,10.3-13.4,22.6-14.8,39.1c10-29.1,35.1-55.4,72.4-55.4c13.5,0,24.1,3.7,34,8.9
			c4.2-1.7,8.5-3.3,11.8-5.9c-13.7-9.5-30.6-16.7-52.4-14.8c-21.1,1.8-37.4,14.2-48.7,24.4C63.4,95.9,66.7,92.3,65,90.1z"/>
		<path class="st1" d="M300.5,54.6c25.3,1,40.1,12.6,53.2,25.8c41.7,0.9,75.8,27.8,76.1,67.9c0.1,15.4-5.3,27.9-13.3,36.9
			c16.5-48.3-16.6-83.2-55.4-90.8c-4.3-0.8-10.2,0.2-15.5-1.5c-5.2-1.6-12.7-10.5-18.5-14c-9.9-6.1-18.2-10.1-34-10.3
			c-9.3-20.2-27.3-38-53.9-41.3c-28-3.5-48.5,9.8-63.5,25.1c10.6-20.3,28.6-36.7,56.1-39.1C266,10.3,289.2,31.4,300.5,54.6z"/>
		<path class="st1" d="M172,39.9c-1.5,5.4-6.5,7.3-8.1,12.6c-29.8-18.1-73.3-3.6-87.1,19.9C85.5,38.2,136.2,18,172,39.9z"/>
		<path class="st1" d="M307.9,152.1c12.4-57.3-44.8-104-99.7-81.2c-5.7,2.3-10.9,9.6-17,5.9c1.6-6.5,11.1-11.9,18.5-15.5
			C267.7,33.3,336.2,92.2,307.9,152.1z"/>
		<path class="st0" d="M443,160.2c0,27.3,0,54.6,0,82c-70.9,0-141.8,0-212.7,0c17.6-2.6,30.3-10.1,42.1-18.5
			c14.4,8.5,29.5,13.4,48.7,11.8c11.1-0.9,21-7.3,28.8-8.1c4.7-0.5,10.4,1.5,14.8,1.5C409.5,228.8,434.8,198.5,443,160.2z"/>
		<path class="st0" d="M0,169.1c8.3,38.9,32.4,65.9,71.6,68.7c14.3,1,27.4-1.3,36.9-5.2c5-2,11.1-8.3,17-8.9
			c6.6-0.7,16.1,3.4,25.1,3c6.9-0.3,12-1.9,17.7-3c11.5,8.4,24.3,15.6,41.3,18.5c-69.9,0-139.8,0-209.7,0C0,217.8,0,193.5,0,169.1z"
			/>
		<path class="st1" d="M63.5,98.9c11.3-10.2,27.6-22.5,48.7-24.4c21.9-1.9,38.7,5.3,52.4,14.8c-3.3,2.6-7.6,4.2-11.8,5.9
			c-9.8-5.1-20.5-8.9-34-8.9c-37.3,0-62.4,26.2-72.4,55.4c1.4-16.6,7.1-28.8,14.8-39.1c-17.6,3.8-29.7,13.1-40.6,23.6
			C29.3,108,45.1,97.1,65,90.1C66.7,92.3,63.4,95.9,63.5,98.9z"/>
	</g>
</g>
</svg>
